<?xml version="1.0" encoding="utf-8"?>
<!-- Generator: Adobe Illustrator 24.1.2, SVG Export Plug-In . SVG Version: 6.00 Build 0)  -->
<svg version="1.1" xmlns="http://www.w3.org/2000/svg" xmlns:xlink="http://www.w3.org/1999/xlink" x="0px" y="0px"
	 viewBox="0 0 500 500" style="enable-background:new 0 0 500 500;" xml:space="preserve">
<style type="text/css">
	.st0{fill:#F5F5F5;}
	.st1{fill:#E0E0E0;}
	.st2{fill:#27DEBF;}
	.st3{fill:#FFFFFF;}
	.st4{opacity:0.2;}
	.st5{fill:#FFA8A7;}
	.st6{fill:#F28F8F;}
	.st7{fill:#F49C9C;}
	.st8{fill:#FFBBBA;}
	.st9{fill:#D46A6A;}
	.st10{fill:#E37B7B;}
	.st11{fill:#37474F;}
	.st12{fill:#455A64;}
	.st13{fill:#263238;}
	.st14{opacity:0.25;}
	.st15{opacity:0.1;}
	.st16{opacity:0.5;fill:#27DEBF;}
	.st17{opacity:0.4;}
	.st18{opacity:0.6;}
	.st19{opacity:0.5;}
	.st20{opacity:0.3;}
	.st21{fill:#B16668;}
	.st22{opacity:0.45;}
	.st23{opacity:0.35;}
</style>
<g id="Floor">
	<ellipse id="Floor_1_" class="st0" cx="249.97" cy="338.89" rx="229.13" ry="127.07"/>
</g>
<g id="Shadows">
	<path id="Shadow_4_" class="st1" d="M391.37,387.86l12.01-6.93c31.4-18.13,31.4-47.53,0-65.66l-53.92-31.13
		c-31.4-18.13-82.32-18.13-113.72,0l-12.01,6.93c-31.4,18.13-31.4,47.53,0,65.66l53.92,31.13
		C309.05,405.99,359.96,405.99,391.37,387.86z"/>
	<ellipse id="Shadow_3_" class="st1" cx="261.46" cy="399.28" rx="27.88" ry="16.09"/>
	<path id="Shadow_2_" class="st1" d="M244.99,356.71c-10.89-6.29-28.54-6.29-39.42,0c-10.89,6.29-10.89,16.48,0,22.76
		c10.89,6.29,28.54,6.29,39.42,0C255.88,373.19,255.88,363,244.99,356.71z"/>
	<ellipse id="Shadow_1_" class="st1" cx="130.05" cy="344.68" rx="62.13" ry="35.87"/>
</g>
<g id="Plants">
	<g id="Plants_1_">
		<g id="XMLID_840_">
			<path id="XMLID_842_" class="st2" d="M84.47,316.87l7.15-0.96c0,0,5.07-14.07,5.83-26.37c1.14-18.4-10.22-38.9-20.25-44.55
				c-18.5-10.42-22.38,8.33-9.71,21.99C78.52,278.86,87.15,294.93,84.47,316.87z"/>
			<path id="XMLID_841_" class="st3" d="M87.9,316.75c-0.03-0.01-0.05-0.02-0.08-0.03c-0.4-0.18-0.58-0.66-0.39-1.06
				c7.07-15.53,1.06-49.03-14.78-61.99c-0.34-0.28-0.39-0.78-0.11-1.12c0.28-0.34,0.78-0.39,1.12-0.11
				c16.31,13.36,22.5,47.88,15.22,63.89C88.71,316.7,88.29,316.88,87.9,316.75z"/>
		</g>
		<g id="XMLID_837_">
			<path id="XMLID_839_" class="st2" d="M91.15,328.05c0.74-1.86,1.55-4.65,1.75-5.34c0.73-2.41,1.02-4.97,0.71-7.48
				c-0.13-1.11-0.63-2.26-0.53-3.34c0.09-1.04,0.54-1.96,0.5-3.06c-0.08-2.17-1.02-4.33-2.64-5.79c-1.56-1.4-3.77-2.35-4.37-4.35
				c-0.41-1.35,0.06-2.78,0.41-4.14c0.54-2.09,0.77-4.4-0.23-6.31c-1.29-2.45-4.25-3.52-7-3.82c-2.75-0.3-5.6-0.07-8.25-0.87
				c-4.48-1.36-7.68-5.44-12.07-7.08c-1.55-0.58-3.21-0.83-4.87-0.85c-2.45-0.02-5.1,0.6-6.64,2.5c-1.41,1.74-1.6,4.26-0.87,6.38
				c0.81,2.36,2.54,4.11,4.38,5.7c1.92,1.67,3.21,3.2,1.56,5.69c-0.48,0.72-1.01,1.43-1.23,2.27c-0.38,1.48,0.34,3.07,1.44,4.12
				c1.1,1.06,2.53,1.69,3.93,2.31c1.65,0.72,3.3,1.45,4.95,2.17c1.44,0.63,3.15,1.72,2.89,3.27c-0.16,0.96-1.04,1.61-1.6,2.41
				c-1.12,1.6-0.86,3.89,0.24,5.51c1.1,1.62,2.88,2.65,4.71,3.34c1.83,0.68,3.76,1.06,5.61,1.69c2.86,0.96,5.52,2.51,7.77,4.53
				c0.58,0.52,1.15,1.08,1.87,1.39C84.62,329.35,90.69,329.22,91.15,328.05z"/>
			<path id="XMLID_838_" class="st4" d="M91.15,328.05c0.74-1.86,1.55-4.65,1.75-5.34c0.73-2.41,1.02-4.97,0.71-7.48
				c-0.13-1.11-0.63-2.26-0.53-3.34c0.09-1.04,0.54-1.96,0.5-3.06c-0.08-2.17-1.02-4.33-2.64-5.79c-1.56-1.4-3.77-2.35-4.37-4.35
				c-0.41-1.35,0.06-2.78,0.41-4.14c0.54-2.09,0.77-4.4-0.23-6.31c-1.29-2.45-4.25-3.52-7-3.82c-2.75-0.3-5.6-0.07-8.25-0.87
				c-4.48-1.36-7.68-5.44-12.07-7.08c-1.55-0.58-3.21-0.83-4.87-0.85c-2.45-0.02-5.1,0.6-6.64,2.5c-1.41,1.74-1.6,4.26-0.87,6.38
				c0.81,2.36,2.54,4.11,4.38,5.7c1.92,1.67,3.21,3.2,1.56,5.69c-0.48,0.72-1.01,1.43-1.23,2.27c-0.38,1.48,0.34,3.07,1.44,4.12
				c1.1,1.06,2.53,1.69,3.93,2.31c1.65,0.72,3.3,1.45,4.95,2.17c1.44,0.63,3.15,1.72,2.89,3.27c-0.16,0.96-1.04,1.61-1.6,2.41
				c-1.12,1.6-0.86,3.89,0.24,5.51c1.1,1.62,2.88,2.65,4.71,3.34c1.83,0.68,3.76,1.06,5.61,1.69c2.86,0.96,5.52,2.51,7.77,4.53
				c0.58,0.52,1.15,1.08,1.87,1.39C84.62,329.35,90.69,329.22,91.15,328.05z"/>
			<path class="st3" d="M87.64,329.17c-0.26-0.08-0.46-0.3-0.51-0.59c-2.8-18.54-15.27-35.57-35.13-47.96
				c-0.34-0.21-0.44-0.66-0.23-1c0.21-0.34,0.67-0.44,1-0.23c20.22,12.61,32.94,30,35.8,48.97c0.06,0.4-0.21,0.77-0.61,0.83
				C87.85,329.21,87.74,329.2,87.64,329.17z"/>
		</g>
	</g>
</g>
<g id="Piggy_Bank_1_">
	<g id="Piggy_Bank_3_">
		<g>
			<g>
				<path class="st5" d="M270.66,164.41c-0.6-1.68-2.38-3.07-4.15-2.28c-3.84,1.7-5.34,1.95-9.67,2.35
					c-2.51,0.23-7.39-0.8-9.55-2.08c-6.39-3.78-9.89-9.59-10.37-16.15c-0.25-3.42,0.13-6.98,1.11-10.34
					c9.23,4.86,22.12,2.6,28.98-5.4c5.07-5.92,3.86-13.22-3.67-16.23c-7.47-2.98-18.46-1.8-25.19,2.59
					c-0.71,0.46-1.39,0.97-2.05,1.52c0.79-7.25,3.63-14.48,13.08-18.9c1.1-0.51,2.07-1.8,0.72-1.97c-8.3-1.01-15.09,4.3-18.61,11.39
					c-2.77,5.56-4.11,12.02-1.82,17.76c-1.84,3.4-3.21,7.33-3.97,11.38c-1.33,7.09-0.05,16.67,3.13,22.16
					c4.35,7.5,10.86,13.55,23.46,15.41C258.86,176.62,274.27,174.57,270.66,164.41z M255.74,121.77c3.46-0.06,6.61,1.37,4.44,4.31
					c-1.25,1.7-3.17,2.69-5.67,3.68c-3.86,1.53-9.23,0.63-12.95-1.27C244.97,123.94,249.99,121.87,255.74,121.77z"/>
				<path class="st6" d="M229.46,126.68c-1.42,2.61-2.54,5.54-3.33,8.59c3.54,4.54,8.67,5.99,10.83,6.42
					c0.17-1.95,0.52-3.9,1.07-5.78C232.53,132.77,231.03,130,229.46,126.68z"/>
				<path class="st6" d="M241.56,128.49c0.43-0.57,0.88-1.1,1.36-1.6c-0.83-0.44-2.45-1.47-4.17-3.46
					c-2.47-2.87-2.66-5.04-2.66-5.04C235.93,121.94,238.39,126.79,241.56,128.49z"/>
			</g>
			<path class="st6" d="M350.34,328.15c0.01-0.07,0.02-0.14,0.03-0.21l0.04-0.22h-0.01c0.66-5.02-2.32-10.17-8.97-14.01
				c-12.09-6.98-31.7-6.98-43.8,0c-6.65,3.84-9.64,8.99-8.97,14.01h-0.01l0.04,0.23c0.01,0.07-12.86-1.67-12.86-1.67l2.96,3.11
				c7.95,8.36,13.18,18.92,15.02,30.31l1.75,10.86c0,0,0,0.01,0,0.01l0.02,0.11h0.01c0.55,3.06,2.86,6.04,6.92,8.38
				c9.41,5.43,24.66,5.43,34.06,0c4.06-2.35,6.37-5.32,6.92-8.38h0l0.01-0.08c0-0.03,0.01-0.05,0.01-0.08L350.34,328.15z"/>
			<path class="st6" d="M285.57,290.75c0.01-0.07,0.02-0.14,0.03-0.21l0.04-0.22h-0.01c0.66-5.02-2.41-10.02-8.97-14.01
				c-4.64-2.82-28.77-2.82-42.74-2.82c-8.3,0-12.86-0.84-12.2,4.18h-0.01l0.04,0.23c0.01,0.07-9.23-11.36-9.23-11.36l0,0
				c7.23,14.3,12.22,29.63,14.8,45.45l3.46,21.18c0,0,0,0.01,0,0.01l0.02,0.11h0.01c0.55,3.06,2.86,6.04,6.92,8.38
				c9.41,5.43,24.66,5.43,34.06,0c4.06-2.35,6.37-5.32,6.92-8.38h0l0.01-0.08c0-0.03,0.01-0.05,0.01-0.08L285.57,290.75z"/>
			<path class="st6" d="M357.53,303.95c-0.01-0.07-0.02-0.14-0.03-0.21l-0.04-0.22h0.01c-0.66-5.02,2.41-10.02,8.97-14.01
				c4.64-2.82,28.77-2.82,42.74-2.82c8.3,0,12.86-0.84,12.2,4.18h0.01l-0.04,0.23c-0.01,0.07-0.02,0.14-0.03,0.2l-9,55.06
				c0,0,0,0.01,0,0.01l-0.02,0.11h-0.01c-0.55,3.06-2.86,6.04-6.92,8.38c-9.41,5.43-24.66,5.43-34.06,0
				c-4.06-2.35-6.37-5.32-6.92-8.38h0l-0.01-0.08c0-0.03-0.01-0.05-0.01-0.08L357.53,303.95z"/>
			<g>
				<path class="st5" d="M351.28,147.39c-13.72-5.94-29.36-10-45.33-10c-54.51,0-98.69,44.19-98.69,98.69
					c0,36.27,21.28,65.33,48.71,85.12c11.49,8.29,31.3,19.21,42.69,24.92c16.26,8.14,31.72,13.56,49.95,13.56
					c54.51,0,98.69-44.19,98.69-98.69c0-35.37-19.03-65.01-45.74-84.29C386.32,165.7,366.52,153.99,351.28,147.39z"/>
				<path class="st7" d="M268.21,306.47c-38.1-30.79-60.96-98.96-30.48-141.71c-18.78,17.97-30.48,43.28-30.48,71.32
					c0,36.27,21.28,65.33,48.71,85.12c11.49,8.29,31.3,19.21,42.69,24.92c16.26,8.14,31.72,13.56,49.95,13.56
					c29.34,0,55.69-12.81,73.77-33.14C367,366.4,306.31,337.27,268.21,306.47z"/>
			</g>
			<g>
				<path class="st8" d="M371.08,181.09l15.24,8.8c15.24-4.4,33.46-1.72,45.12,17.95c0,0,3.98-46.08-1.9-58.82
					c0,0-3.16-1.81-4.43-2.56c-1.93-1.13-5.04-1.47-8.76-0.82C397.53,148.93,380.55,164.57,371.08,181.09z"/>
				<path class="st6" d="M386.32,189.89c19.74-5.07,34.78,1.11,45.12,17.95c0,0,17.31-66.24-10.83-59.74
					C401.56,152.5,386.32,189.89,386.32,189.89z"/>
				<path class="st9" d="M414.89,183.29c-18.34-6.73-28.58,6.6-28.58,6.6c19.74-5.07,34.78,1.11,45.12,17.95
					C431.43,207.84,433.24,190.02,414.89,183.29z"/>
			</g>
			<g>
				<path class="st8" d="M355.84,207.49c-16.7,15.19-31.69,34.48-42.68,63.35l-14.6-8.37c-5.48-5.55-19.7-52.78,7.75-70.38
					C324.65,180.34,355.84,207.49,355.84,207.49z"/>
				<path class="st6" d="M355.84,207.49c-19.74,17.73-33.54,39.1-42.68,63.35c0,0-30.66-53.06-3.04-76.54
					C326.25,180.58,355.84,207.49,355.84,207.49z"/>
				<path class="st9" d="M355.84,207.49c0,0-16.78,0-31.23,19.8c-13.52,18.51-11.45,43.55-11.45,43.55
					C322.3,246.59,336.1,225.21,355.84,207.49z"/>
			</g>
			<g>
				<path class="st6" d="M428.94,257.06c-5.9-3.4-14.28-2.82-23.57,2.55c-17.89,10.33-32.39,34.45-32.39,53.89
					c0,9.28,3.31,15.81,8.71,18.97c2.6,1.53,12.81,7.43,15.44,8.92c5.9,3.34,14.23,2.73,23.47-2.6
					c17.89-10.33,32.39-34.45,32.39-53.89c0-9.27-3.3-15.79-8.69-18.96C441.69,264.41,431.53,258.55,428.94,257.06z"/>
				<path class="st5" d="M420.61,268.41c17.89-10.33,32.39-2.94,32.39,16.5c0,19.44-14.5,43.57-32.39,53.89
					c-17.89,10.33-32.39,2.94-32.39-16.5C388.22,302.86,402.72,278.73,420.61,268.41z"/>
				<path class="st8" d="M394.72,336.24c-8.19-11.27-2.92-34.86,6.16-49.15c-7.7,10.88-12.66,23.85-12.66,35.21
					c0,19.44,14.5,26.82,32.39,16.5c5.85-3.38,11.34-8.24,16.08-13.93C425.42,338.37,403.46,348.27,394.72,336.24z"/>
				<g>
					<path class="st6" d="M409.18,304.27c3.16-1.82,5.71-0.35,5.71,3.3s-2.56,8.08-5.71,9.9c-3.16,1.82-5.71,0.35-5.71-3.3
						S406.02,306.1,409.18,304.27z"/>
					<path class="st10" d="M411.08,305.37c0-0.67-0.09-1.26-0.25-1.77c-0.53,0.12-1.08,0.34-1.66,0.67
						c-3.16,1.82-5.71,6.25-5.71,9.9c0,0.67,0.09,1.26,0.25,1.77c0.53-0.12,1.08-0.34,1.66-0.67
						C408.52,313.45,411.08,309.02,411.08,305.37z"/>
				</g>
				<g>
					<path class="st6" d="M432.04,291.08c3.16-1.82,5.71-0.35,5.71,3.3c0,3.64-2.56,8.08-5.71,9.9c-3.16,1.82-5.71,0.35-5.71-3.3
						C426.32,297.33,428.88,292.9,432.04,291.08z"/>
					<path class="st10" d="M433.94,292.18c0-0.67-0.09-1.26-0.25-1.77c-0.53,0.12-1.08,0.34-1.66,0.67
						c-3.16,1.82-5.71,6.25-5.71,9.9c0,0.67,0.09,1.26,0.25,1.77c0.53-0.12,1.08-0.34,1.66-0.67
						C431.38,300.25,433.94,295.82,433.94,292.18z"/>
				</g>
			</g>
			<circle class="st11" cx="363.46" cy="264.68" r="7.62"/>
			
				<ellipse transform="matrix(0.7071 -0.7071 0.7071 0.7071 -45.2995 367.2061)" class="st11" cx="420.61" cy="238.28" rx="7.62" ry="7.62"/>
			<g>
				<polygon class="st6" points="336.79,183.29 302.5,163.5 310.12,159.1 344.41,178.89 				"/>
				<polygon class="st10" points="310.12,159.1 310.12,163.5 340.6,181.09 344.41,178.89 				"/>
				<polygon class="st9" points="310.12,159.1 310.12,163.5 306.31,165.7 302.5,163.5 				"/>
			</g>
		</g>
		<g id="XMLID_2_">
			<g id="XMLID_9_">
				<path id="XMLID_10_" class="st1" d="M321.43,122.02c-1.5,0.06-2.76-1.1-2.83-2.6l-1.11-26.21c-0.06-1.5,1.1-2.76,2.6-2.83
					c1.5-0.06,2.76,1.1,2.83,2.6l1.11,26.21C324.09,120.69,322.93,121.96,321.43,122.02z"/>
			</g>
			<g id="XMLID_7_">
				<path id="XMLID_8_" class="st1" d="M293.6,127.37c-0.94-0.03-1.83-0.55-2.31-1.43l-12.38-23.12c-0.71-1.32-0.21-2.96,1.11-3.67
					c1.31-0.71,2.96-0.21,3.67,1.11l12.38,23.12c0.71,1.32,0.21,2.96-1.11,3.67C294.53,127.29,294.06,127.39,293.6,127.37z"/>
			</g>
			<g id="XMLID_5_">
				<path id="XMLID_6_" class="st1" d="M368.47,141.32c-0.93,0.13-1.9-0.23-2.52-1.02c-0.92-1.18-0.71-2.89,0.48-3.81l20.71-16.09
					c1.18-0.92,2.88-0.71,3.81,0.48c0.92,1.18,0.71,2.89-0.48,3.81l-20.71,16.1C369.37,141.08,368.92,141.26,368.47,141.32z"/>
			</g>
			<g id="XMLID_3_">
				<path id="XMLID_4_" class="st1" d="M349.31,126.69c-0.46,0.06-0.93,0.01-1.39-0.17c-1.39-0.56-2.06-2.14-1.5-3.53l9.83-24.32
					c0.56-1.39,2.14-2.06,3.53-1.5c1.39,0.56,2.06,2.14,1.5,3.53l-9.83,24.32C351.07,125.95,350.24,126.56,349.31,126.69z"/>
			</g>
		</g>
	</g>
</g>
<g id="Character">
	<g id="Character_2_">
		<g id="XMLID_817_">
			<g>
				<path class="st5" d="M160.53,322.2c0.29-0.53,0.4-1.12,0.4-1.77c0-0.67,0.04-1.33,0.08-2c0.33-5.07,4.36-53.22,5.37-64.28
					c1.69-18.58,1.77-68.23-1.96-84.23l-49.97,3.96c-3.57,9-6.19,20.08-5.58,37.46c0.46,13.25,0.25,49.2,0.25,49.2
					s-6.03,5.3-10.32,15.74c-3.79,9.23-6.22,31.84-8.32,40.79c-0.4,1.7-0.98,4.02-1.22,4.33c-1.04,1.42-1.78,2.93-1.77,4.65
					c0.02,5.5,0.62,11,1.79,16.37c0.61,2.78,2.35,4.57,5.13,5.67c0.62,0.24,1.28,0.37,1.94,0.32c0.34-0.03,0.7-0.11,0.94-0.35
					c0.47-0.47,0.04-1.59-0.05-2.14c-0.15-0.9-0.23-1.81-0.26-2.72c-0.06-1.79-0.01-3.97,0.11-5.76c0.3-4.67,0.97-8.46,1.89-11.87
					c0,0,0.38-0.91,0.96-2.3c0,0,21.38-43.41,27.46-53.99c4.83-8.3,9.74-40.54,13.14-58.14l5.92,42.04c0,0-2.53,7.6-3.19,13.42
					c-0.88,7.81,4.67,38.14,6.35,49.01c0.24,1.59,0.33,3.2,0.26,4.8c-0.02,0.46-0.17,1.02-0.04,1.47c0.15,0.49,0.6,0.93,1,1.22
					c0.52,0.37,1.13,0.59,1.74,0.76c1.36,0.36,2.79,0.45,4.18,0.26c0.52-0.07,1.02-0.25,1.54-0.35c0.59-0.12,1.14-0.39,1.59-0.79
					C160.17,322.74,160.37,322.48,160.53,322.2z"/>
				<g>
					<path class="st11" d="M106.71,358.52c-0.13,0.03-0.25,0.05-0.37,0.08c-3.3,0.67-6.75,0.73-10.03-0.07
						c-2.89-0.71-5.68-2.1-7.84-4.17c-0.89-0.85-1.55-2.32-2.06-3.44c-0.58-1.28-0.9-2.64-1.28-3.98c-1.23-4.34-0.14-5.68-1.83-9.9
						c-0.61-1.52-1.52-2.96-1.89-4.52c0.26-1.24,0.58-1.75,0.95-2.33c2.04,2.39,4.08,4.79,6.11,7.18c1.35,1.59,2.71,3.18,4.06,4.77
						c0.71,0.84,1.43,1.68,2.14,2.52c0.48,0.57,0.88,1.32,1.4,1.83c0.66,0.65,1.78,1.05,2.6,1.47c0.94,0.48,1.89,0.93,2.86,1.36
						c1.9,0.83,3.84,1.54,5.82,2.13c0.83,0.25,1.67,0.48,2.41,0.93c0.74,0.45,1.36,1.17,1.48,2.03c0.1,0.73-0.19,1.48-0.65,2.07
						C109.68,357.65,108.19,358.19,106.71,358.52z"/>
					<g id="XMLID_820_">
						<path id="XMLID_821_" class="st12" d="M98.42,326.98l0.76-1.92c0.8,0.56,0.08,4.47,0.28,8.47c0.09,1.79,0.37,3.57,0.8,5.31
							c0.42,1.7,1.11,2.94,2.18,4.32c1.57,2.02,3.47,3.78,5.61,5.17c1.03,0.67,1.81,1.09,2.48,2.15c0.65,1.02,0.98,2.33,0.5,3.49
							c-0.35,0.84-1.07,1.48-1.88,1.9c-1.08,0.57-2.34,0.88-3.54,1.07c-3.88,0.6-8.01,0.26-11.67-1.3
							c-1.95-0.83-3.84-2.11-5.19-3.76c-1.14-1.4-1.63-3.26-2.14-4.98c-0.92-3.08-0.98-6.3-1.57-8.66
							c-0.59-2.36-2.83-5.66-2.69-8.05c0.08-1.31,1.6-3.64,3.04-5.53c1.32-1.74,3.43-4.02,4.02-3.56c-0.1,0.24-0.42,1.28-0.42,1.28
							c0.43,1.22,1.68,3.08,4.14,4.21C94.73,327.31,97.19,327.52,98.42,326.98z"/>
					</g>
					<g>
						<g>
							<path class="st1" d="M102.79,343.87c0.2-0.04,0.36-0.19,0.39-0.4c0.05-0.27-0.13-0.52-0.4-0.57
								c-2.87-0.49-7.98,0.13-10.26,1.65c-0.23,0.15-0.29,0.46-0.14,0.68c0.15,0.23,0.46,0.29,0.68,0.14
								c2.07-1.38,6.91-1.95,9.55-1.5C102.67,343.88,102.73,343.88,102.79,343.87z"/>
						</g>
						<g>
							<path class="st1" d="M101.07,340.17c0.2-0.03,0.37-0.17,0.41-0.38c0.06-0.26-0.1-0.53-0.37-0.59
								c-2.6-0.6-6.99-0.32-9.56,1.18c-0.24,0.14-0.31,0.44-0.18,0.67c0.14,0.24,0.44,0.31,0.67,0.18c2.29-1.34,6.42-1.64,8.84-1.07
								C100.96,340.18,101.02,340.18,101.07,340.17z"/>
						</g>
						<g>
							<path class="st1" d="M99.99,336.31c0.17-0.02,0.33-0.12,0.4-0.29c0.11-0.25-0.01-0.54-0.25-0.65
								c-2.29-0.99-6.87-0.56-9.26,0.88c-0.23,0.14-0.31,0.44-0.17,0.68c0.14,0.23,0.45,0.3,0.68,0.17c2.13-1.28,6.35-1.7,8.36-0.82
								C99.83,336.31,99.91,336.32,99.99,336.31z"/>
						</g>
					</g>
				</g>
				<g>
					<path class="st11" d="M183.22,343.97c0.12,1.18-0.3,3.27-1.87,4.27c-1.57,1-7.04,3.36-12.21,2.05
						c-7.09-1.78-8.46-3.69-10.9-6.25c-3.1-3.27-2.77-4.96-6.23-7.92c-1.24-1.06-2.72-1.91-3.78-3.12
						c-0.35-1.22-0.38-2.64-0.33-3.32L183.22,343.97z"/>
					<g id="XMLID_818_">
						<path id="XMLID_819_" class="st12" d="M160.8,319.95l0.21-1.52c0.97,0.13,1.72,3.39,3.76,6.84c1.64,2.76,4.39,5.61,6.67,7.33
							c4.07,3.08,9.19,6.13,11.51,9.59c2.35,3.5-4.89,6.71-10.34,6.59c-5.45-0.12-9.8-2.44-12.99-5.7c-2.24-2.3-3.8-5.12-5.42-6.94
							c-1.62-1.82-5.14-3.69-6.12-5.88c-0.54-1.2-0.28-3.96,0.11-6.31c0.36-2.16,1-4.89,1.74-4.76c-0.01,0.21,0,1.17,0,1.17
							c0.95,0.88,3.3,1.84,6.01,1.7C157.68,321.95,159.96,320.99,160.8,319.95z"/>
					</g>
					<g>
						<g>
							<path class="st1" d="M175.09,334.96c0.17-0.1,0.28-0.3,0.24-0.5c-0.04-0.27-0.29-0.45-0.56-0.41
								c-2.88,0.45-7.52,2.66-9.2,4.83c-0.17,0.21-0.13,0.52,0.09,0.69c0.21,0.17,0.52,0.13,0.69-0.09
								c1.52-1.96,5.93-4.04,8.58-4.46C174.99,335.01,175.04,334.98,175.09,334.96z"/>
						</g>
						<g>
							<path class="st1" d="M171.2,332.27c0.17-0.1,0.28-0.3,0.24-0.51c-0.04-0.27-0.29-0.45-0.56-0.41
								c-2.63,0.41-6.6,2.31-8.43,4.67c-0.17,0.21-0.13,0.52,0.09,0.69c0.22,0.17,0.52,0.13,0.69-0.09c1.62-2.1,5.35-3.92,7.8-4.3
								C171.1,332.32,171.15,332.3,171.2,332.27z"/>
						</g>
						<g>
							<path class="st1" d="M167.91,329.46c0.15-0.08,0.25-0.25,0.25-0.43c0-0.27-0.22-0.49-0.5-0.49
								c-2.49,0.01-6.51,2.27-8.12,4.55c-0.16,0.22-0.1,0.53,0.12,0.69c0.22,0.16,0.53,0.1,0.69-0.12c1.43-2.03,5.12-4.12,7.32-4.13
								C167.76,329.53,167.84,329.5,167.91,329.46z"/>
						</g>
					</g>
				</g>
				<path class="st12" d="M121.52,159.88c0,0-7.96,10.94-10.76,22.63c-2.79,11.69-2.64,19.36-2.53,39.72
					c0.11,20.36,0.4,38.07,0.4,38.07s-10.11,6.67-13.44,29.81c0,0,7.96,8.2,18.53,5.48c0,0,11.35-20.16,15.1-26.48
					c3.75-6.33,11.71-57.97,11.71-57.97l4.79,42.12c0,0-3.62,10.07-3.14,17.19c0.48,7.12,1.89,17.52,1.89,17.52s9.13,4.14,19.37-0.6
					c0,0,3.93-33.07,4.38-45.07c0.45-12,1.91-54.37-3.97-80.91L121.52,159.88z"/>
				<path class="st13" d="M140.5,211.24l4.74-18.56c0,0,9.11,1.05,16.29-4.25c0,0-1.47,6.79-14.17,8.82l-5.43,18.22l0.08,8.7
					L140.5,211.24z"/>
			</g>
		</g>
		<path class="st6" d="M235.85,138.51c-2.87,0.39-9.45,1.02-9.45,1.02s3.97-4.11,2.64-5.25c-1.33-1.15-2.66,1.82-6.95,3.08
			c-4.29,1.27-6.13,3.23-8.65,3L182,137.54c0,0-18.48-28.9-21.84-31.92c-3.36-3.02-7.39-3.44-11.75-2.82l3.76,23.56
			c0,0,12.41,15.18,16.18,19.79c3.77,4.61,5.25,6.21,10.89,6.51c6.41,0.34,22.79-0.51,32.25-1.07c6.16,0.14,8.18,0.59,12.54,0.32
			c4.67-0.29,9.51,0.2,13.34-5.29C241.83,140.25,240.01,137.95,235.85,138.51z"/>
		<g id="XMLID_777_">
			<g id="XMLID_815_">
				<path id="XMLID_816_" class="st2" d="M234.49,113.39c1.09,2.89,1.56,6.51,1.24,10.73c-1.11,14.77-11.38,31.24-22.94,36.8
					c-3.3,1.59-6.35,2.11-8.99,1.71l-0.88,1.41l-4.73-4.17l0.01-0.02c-3.17-3.09-4.86-8.49-4.32-15.59
					c1.11-14.77,11.38-31.24,22.94-36.8c5.56-2.67,10.41-2.35,13.81,0.37l0,0l4.73,4.17L234.49,113.39z"/>
			</g>
			<g id="XMLID_811_" class="st14">
				<g>
					<path id="XMLID_136_" d="M234.49,113.39c1.09,2.89,1.56,6.51,1.24,10.73c-1.11,14.77-11.38,31.24-22.94,36.8
						c-3.3,1.59-6.35,2.11-8.99,1.71l-0.88,1.41l-4.73-4.17l0.01-0.02c-3.17-3.09-4.86-8.49-4.32-15.59
						c1.11-14.77,11.38-31.24,22.94-36.8c5.56-2.67,10.41-2.35,13.81,0.37l0,0l4.73,4.17L234.49,113.39z"/>
				</g>
			</g>
			<path id="XMLID_810_" class="st15" d="M228.18,145.97c-4.15,6.66-9.61,12.17-15.39,14.95c-3.3,1.59-6.35,2.11-8.99,1.71
				l-0.88,1.41l-4.73-4.17l0.01-0.02c-3.17-3.09-4.86-8.49-4.32-15.59c0.56-7.38,3.4-15.2,7.56-21.86L228.18,145.97z"/>
			<path id="XMLID_809_" class="st15" d="M217.15,158.27c-1.42,1.04-2.88,1.94-4.36,2.65c-3.3,1.59-6.35,2.11-8.99,1.71l-0.88,1.41
				l-4.73-4.17l0.01-0.02c-3.17-3.09-4.86-8.49-4.32-15.59c0.14-1.89,0.44-3.81,0.87-5.73L217.15,158.27z"/>
			<path id="XMLID_808_" class="st16" d="M234.87,129.84c0.43-1.92,0.72-3.84,0.87-5.73c0.32-4.22-0.15-7.83-1.24-10.73l0.88-1.41
				l-4.73-4.17l0,0c-3.41-2.71-8.26-3.04-13.81-0.37c-1.48,0.71-2.94,1.61-4.36,2.65L234.87,129.84z"/>
			<g id="XMLID_797_">
				<path id="XMLID_806_" class="st2" d="M221.16,111.26c-11.56,5.56-21.83,22.04-22.94,36.8c-1.11,14.77,7.35,22.23,18.91,16.67
					c11.56-5.56,21.83-22.04,22.94-36.8C241.18,113.17,232.71,105.7,221.16,111.26z"/>
				<path id="XMLID_804_" class="st4" d="M221.16,111.26c-11.56,5.56-21.83,22.04-22.94,36.8c-1.11,14.77,7.35,22.23,18.91,16.67
					c11.56-5.56,21.83-22.04,22.94-36.8C241.18,113.17,232.71,105.7,221.16,111.26z"/>
				<g id="XMLID_798_">
					<path id="XMLID_803_" class="st2" d="M232.61,131.3c-0.54,4.51-2.38,9.48-5.2,13.99c-2.81,4.51-6.27,8.05-9.74,9.98
						c-3.68,2.04-6.98,2.03-9.29,0c-2.31-2.04-3.27-5.79-2.7-10.57c0.53-4.51,2.38-9.48,5.19-13.99c2.81-4.51,6.27-8.05,9.75-9.98
						c3.68-2.03,6.97-2.03,9.28,0C232.21,122.78,233.17,126.53,232.61,131.3z"/>
					<path id="XMLID_802_" class="st17" d="M232.61,131.3c-0.54,4.51-2.38,9.48-5.2,13.99c-2.81,4.51-6.27,8.05-9.74,9.98
						c-3.68,2.04-6.98,2.03-9.29,0c-2.31-2.04-3.27-5.79-2.7-10.57c0.53-4.51,2.38-9.48,5.19-13.99c2.81-4.51,6.27-8.05,9.75-9.98
						c3.68-2.03,6.97-2.03,9.28,0C232.21,122.78,233.17,126.53,232.61,131.3z"/>
					<path id="XMLID_799_" class="st2" d="M234.66,113.11c-3.2-2.82-7.81-3-12.98-0.51c-5.39,2.6-10.69,7.75-14.9,14.51
						c-4.21,6.76-6.81,14.27-7.34,21.16c-0.5,6.61,0.99,11.81,4.18,14.62c3.2,2.82,7.8,3,12.98,0.51c5.4-2.6,10.69-7.74,14.9-14.5
						c4.21-6.76,6.82-14.28,7.33-21.17C239.34,121.12,237.86,115.93,234.66,113.11z M229.9,120.74c2.31,2.04,3.27,5.79,2.71,10.57
						c-0.54,4.51-2.38,9.48-5.2,13.99c-2.81,4.51-6.27,8.05-9.74,9.98c-3.68,2.04-6.98,2.03-9.29,0c-2.31-2.04-3.27-5.79-2.7-10.57
						c0.53-4.51,2.38-9.48,5.19-13.99c2.81-4.51,6.27-8.05,9.75-9.98C224.29,118.7,227.59,118.7,229.9,120.74z"/>
				</g>
			</g>
			<g id="XMLID_789_">
				<path id="XMLID_796_" class="st4" d="M221.07,121.77c6.9-3.82,11.64,0.35,10.57,9.32c-1.07,8.97-7.53,19.33-14.43,23.15
					c-6.9,3.82-11.64-0.35-10.57-9.32C207.71,135.95,214.17,125.59,221.07,121.77z"/>
				<path id="XMLID_795_" class="st2" d="M221.07,121.77c6.9-3.82,11.64,0.35,10.57,9.32c-1.07,8.97-7.53,19.33-14.43,23.15
					c-6.9,3.82-11.64-0.35-10.57-9.32C207.71,135.95,214.17,125.59,221.07,121.77z"/>
				<path id="XMLID_793_" class="st18" d="M221.07,121.77c6.9-3.82,11.64,0.35,10.57,9.32c-1.07,8.97-7.53,19.33-14.43,23.15
					c-6.9,3.82-11.64-0.35-10.57-9.32C207.71,135.95,214.17,125.59,221.07,121.77z"/>
				<path id="XMLID_792_" class="st2" d="M229.66,129.34c-1.07,8.97-7.53,19.33-14.43,23.15c-2.85,1.58-5.34,1.79-7.19,0.86
					c-1.29-1.84-1.84-4.73-1.4-8.43c1.07-8.97,7.53-19.33,14.43-23.15c2.86-1.58,5.34-1.79,7.19-0.86
					C229.55,122.75,230.1,125.64,229.66,129.34z"/>
				<path id="XMLID_790_" class="st19" d="M229.66,129.34c-1.07,8.97-7.53,19.33-14.43,23.15c-2.85,1.58-5.34,1.79-7.19,0.86
					c-1.29-1.84-1.84-4.73-1.4-8.43c1.07-8.97,7.53-19.33,14.43-23.15c2.86-1.58,5.34-1.79,7.19-0.86
					C229.55,122.75,230.1,125.64,229.66,129.34z"/>
			</g>
			<g id="XMLID_781_">
				<path class="st2" d="M222.97,134.52c-0.83-0.52-2.05-0.32-3.3,0.04c-0.38,0.11-0.74,0.23-1.09,0.35
					c0.28-0.56,0.79-1.05,1.45-1.44c1.66-1,2.36-0.15,2.53,0.69l4.01-3.59c-0.11-0.44-0.27-0.8-0.46-1.1
					c-0.21-0.32-0.45-0.56-0.73-0.74c-0.18-0.11-2.91-1.61-3.18-1.68c-0.24-0.07-0.49-0.1-0.75-0.1l-0.02-0.48l-2.59-1.42
					l-3.15,1.89l0.02,0.57l0.07,1.95c0,0-1.55,0.65-3.23,3.59c-0.07,0.13-0.13,0.24-0.19,0.36c-0.67,1.27-1.04,2.64-0.98,4.04
					c-0.01,0.01-0.01,0.01-0.01,0.01c0.06,1.35,0.47,2.12,1.08,2.49c0.06,0.04,2.19,1.16,2.54,1.39c0.08,0.05,0.16,0.1,0.24,0.14
					c0.06,0.03,0.13,0.05,0.19,0.07l0.02,0.01c0.07,0.02,0.14,0.04,0.21,0.06c0.06,0.01,0.13,0.03,0.2,0.03
					c0.03,0,0.06,0.01,0.08,0.01c0.05,0.01,0.1,0.02,0.16,0.01c0.44,0.03,0.93-0.03,1.41-0.13c0.24-0.05,0.48-0.11,0.73-0.18
					c0.35-0.1,0.71-0.21,1.04-0.31c0.11-0.04,0.21-0.07,0.32-0.1c-0.27,0.46-0.72,0.94-1.44,1.37c-0.37,0.22-0.7,0.37-0.99,0.45
					l-1.47-0.81l-3.8,3.44c0.24,0.67,0.59,1.16,1.06,1.47c0.47,0.31,2.3,1.25,2.7,1.5c0.32,0.19,0.69,0.3,1.11,0.33l0.02,0.56
					l2.59,1.42l3.18-1.91l-0.1-2.51c1.33-1.01,2.4-2.2,3.12-3.48l0.02-0.03c0.73-1.31,1.11-2.73,1.05-4.22
					c-0.05-1.41-0.46-2.19-1.07-2.58C225.09,135.64,223.33,134.74,222.97,134.52z"/>
				<path class="st20" d="M222.97,134.52c-0.83-0.52-2.05-0.32-3.3,0.04c-0.38,0.11-0.74,0.23-1.09,0.35
					c0.28-0.56,0.79-1.05,1.45-1.44c1.66-1,2.36-0.15,2.53,0.69l4.01-3.59c-0.11-0.44-0.27-0.8-0.46-1.1
					c-0.21-0.32-0.45-0.56-0.73-0.74c-0.18-0.11-2.91-1.61-3.18-1.68c-0.24-0.07-0.49-0.1-0.75-0.1l-0.02-0.48l-2.59-1.42
					l-3.15,1.89l0.02,0.57l0.07,1.95c0,0-1.55,0.65-3.23,3.59c-0.07,0.13-0.13,0.24-0.19,0.36c-0.67,1.27-1.04,2.64-0.98,4.04
					c-0.01,0.01-0.01,0.01-0.01,0.01c0.06,1.35,0.47,2.12,1.08,2.49c0.06,0.04,2.19,1.16,2.54,1.39c0.08,0.05,0.16,0.1,0.24,0.14
					c0.06,0.03,0.13,0.05,0.19,0.07l0.02,0.01c0.07,0.02,0.14,0.04,0.21,0.06c0.06,0.01,0.13,0.03,0.2,0.03
					c0.03,0,0.06,0.01,0.08,0.01c0.05,0.01,0.1,0.02,0.16,0.01c0.44,0.03,0.93-0.03,1.41-0.13c0.24-0.05,0.48-0.11,0.73-0.18
					c0.35-0.1,0.71-0.21,1.04-0.31c0.11-0.04,0.21-0.07,0.32-0.1c-0.27,0.46-0.72,0.94-1.44,1.37c-0.37,0.22-0.7,0.37-0.99,0.45
					l-1.47-0.81l-3.8,3.44c0.24,0.67,0.59,1.16,1.06,1.47c0.47,0.31,2.3,1.25,2.7,1.5c0.32,0.19,0.69,0.3,1.11,0.33l0.02,0.56
					l2.59,1.42l3.18-1.91l-0.1-2.51c1.33-1.01,2.4-2.2,3.12-3.48l0.02-0.03c0.73-1.31,1.11-2.73,1.05-4.22
					c-0.05-1.41-0.46-2.19-1.07-2.58C225.09,135.64,223.33,134.74,222.97,134.52z"/>
				<g class="st15">
					<path d="M222.26,135.98c1.23-0.36,2.41-0.56,3.24-0.08c-0.55-0.34-2.18-1.17-2.53-1.39c-0.83-0.52-2.05-0.32-3.3,0.04
						c-0.38,0.11-0.74,0.23-1.09,0.35l0,0c-0.17,0.33-0.25,0.69-0.24,1.06C218.41,137.59,220.21,136.59,222.26,135.98z"/>
					<path d="M216.77,148.71l0.02,0.56l2.59,1.42v0l-0.1-2.51C218.31,148.59,217.47,148.76,216.77,148.71z"/>
					<path d="M214.48,146.84l-2.59-1.42c0.24,0.67,0.59,1.16,1.06,1.47c0.45,0.3,2.12,1.16,2.63,1.45
						C215.1,148.02,214.73,147.53,214.48,146.84z"/>
					<path d="M222.4,140.8c-0.1-0.23-0.3-0.34-0.59-0.36c-0.45-0.04-1.15,0.19-2.12,0.49c-0.05,0.01-0.09,0.03-0.09,0.03
						c-0.27,0.46-0.72,0.94-1.44,1.37c-0.37,0.22-0.7,0.37-0.99,0.45l1.12,0.61c0.24,0.98,1.05,1.2,2.46,0.36
						c1.32-0.8,1.78-1.72,1.75-2.48C222.49,141.08,222.45,140.92,222.4,140.8z"/>
					<polygon points="215.7,126.94 218.28,128.37 218.38,130.89 215.79,129.46 					"/>
				</g>
				<g id="XMLID_786_">
					<path id="XMLID_787_" class="st2" d="M218.3,128.93l0.07,1.95c0,0-1.55,0.65-3.23,3.59c-0.07,0.13-0.13,0.24-0.19,0.36
						c-0.67,1.27-1.04,2.64-0.98,4.04c-0.01,0.01-0.01,0.01-0.01,0.01c0.06,1.49,0.56,2.26,1.28,2.59c0.06,0.03,0.13,0.05,0.19,0.07
						l0.02,0.01c0.07,0.02,0.14,0.04,0.21,0.06c0.06,0.01,0.13,0.03,0.2,0.03c0.03,0,0.06,0.01,0.08,0.01
						c0.05,0.01,0.1,0.02,0.16,0.01c0.44,0.03,0.93-0.03,1.41-0.13c0.24-0.05,0.48-0.11,0.73-0.18c0.35-0.1,0.71-0.21,1.04-0.31
						c0.14-0.05,0.27-0.09,0.4-0.13c0.96-0.32,1.66-0.53,2.12-0.49c0.29,0.02,0.48,0.12,0.59,0.36c0.06,0.13,0.09,0.28,0.1,0.48
						c0.03,0.76-0.43,1.68-1.75,2.48c-1.41,0.85-2.23,0.63-2.46-0.36l-3.8,3.44c0.68,1.92,2.31,2.4,4.79,1.34l0.1,2.51l3.18-1.91
						l-0.1-2.51c1.33-1.01,2.4-2.2,3.12-3.48l0.02-0.03c0.73-1.31,1.11-2.73,1.05-4.22c-0.13-3.31-2.2-3.19-4.39-2.55
						c-2.05,0.61-3.85,1.6-3.91-0.01c-0.04-1.01,0.65-1.88,1.69-2.51c1.66-1,2.36-0.15,2.53,0.69l4.01-3.59
						c-0.11-0.44-0.27-0.8-0.46-1.1c-0.34-0.53-0.8-0.85-1.32-0.99c-0.94-0.26-2.1,0.01-3.26,0.52l-0.1-2.52l-3.15,1.89
						L218.3,128.93z"/>
				</g>
				<polygon id="XMLID_785_" class="st0" points="222.56,148.79 219.38,150.7 219.28,148.18 219.68,150.14 				"/>
				<path id="XMLID_784_" class="st0" d="M218.29,143.4l-3.8,3.44l3.56-3.02c0,0,0.46,1.78,2.7-0.07
					C219.34,144.6,218.52,144.38,218.29,143.4"/>
				<path id="XMLID_783_" class="st0" d="M226.57,130.57c-0.11-0.44-0.27-0.8-0.46-1.1c-0.34-0.53-0.8-0.85-1.32-0.99
					c0,0,1.22,0.45,1.44,2.15l-3.67,3.54L226.57,130.57z"/>
				<polygon id="XMLID_782_" class="st0" points="221.53,129 221.18,126.9 218.28,128.37 221.43,126.48 				"/>
			</g>
			<g id="XMLID_778_">
				<path id="XMLID_780_" class="st0" d="M216.42,162.93c8.02-3.61,15.09-14.02,15.09-14.02c-4.21,6.76-9.5,11.9-14.9,14.5
					c-5.18,2.49-9.78,2.31-12.98-0.51C203.63,162.89,208.26,166.6,216.42,162.93z"/>
				<path id="XMLID_779_" class="st0" d="M204.56,128.26c4.27-7.57,10.24-13.93,16.6-16.99c6.61-3.18,12.22-2.1,15.59,2.18
					c0,0-5.67-6.69-15.62-1.53C211.17,117.07,204.56,128.26,204.56,128.26z"/>
			</g>
		</g>
		<g>
			<path id="XMLID_776_" class="st2" d="M163.57,153.69c-0.65-4.58-0.46-11.19-0.17-15.4c7.39-7.47,5.86-16.02,2.49-21.47
				c-6.92-11.21-15.7-15.39-15.7-15.39l-11.56-0.35c-1.63,0.19-15.84,2.24-17.65,2.71c0,0-4.89,4.15-6.22,8.91
				c-0.76,2.71-0.97,5.41,1.49,14.24l6.02,15.33c0,0,1.75,4.6,0.86,7.81c-0.93,3.38-5.79,11.23-8.36,19c0,0,10.98,9.82,31.1,7.55
				c17.21-1.95,19.71-7.74,19.71-7.74S163.78,156.83,163.57,153.69z"/>
			<path class="st15" d="M131.18,135.19c0,0,3.25,6.68,11.89,6.19c7.9-0.45,10.86-7.22,10.86-7.22s-0.09,9.08-10.81,9.39
				C132.42,143.87,131.18,135.19,131.18,135.19z"/>
		</g>
		<g id="Arm_2_">
			<path class="st5" d="M208.86,134.49c0.02-1.31-0.32-2.46-1.07-3.53c-0.25-0.36-0.52-0.63-1.02-0.69
				c-0.5-0.06-1.03,0.28-1.44,0.65c-1.47,1.31-2.73,2.8-4.28,4.07c-1.55,1.27-3.22,2.06-5.25,2.17c0.01-0.42,0.18-0.7,0.42-1.04
				c0.6-0.84,1.05-1.44,1.7-2.35c0.65-0.91,1.39-2.11,1.04-3.35c-0.09-0.33-0.33-0.62-0.65-0.68c-0.32-0.06-0.52,0.07-0.77,0.21
				c-2.55,1.36-4.02,2.27-5.92,3.87c-2,1.67-3.17,4.44-6.6,5.8c-3.43,1.35-7.12,1.69-13.47,2.52c-4.94,0.65-13.08,1.71-18.57,2.18
				c-7.85-7.97-17.46-22.24-22.69-29.31c-3.22-4.35-7-9.22-9.3-11.22c-4.59,1.33-7.25,3.72-8.32,7.02
				c-2.77,7.57,1.13,16.23,11.39,27.65c3.36,3.74,13.48,14.88,18.65,20.06c1.26,1.27,3.51,2.51,5.89,2.23
				c2.82-0.33,5.93-0.77,9.21-1.53c5.65-1.32,12.84-3.42,18.48-4.79c4.57-1.11,9.31-2.45,13.19-3.59c3.93-1.16,5.25-1.55,7.78-2.59
				c2.53-1.04,3.81-1.6,6.04-3.18c1.2-0.85,2.33-1.93,3.15-3.11c0.81-1.17,1.29-2.45,1.71-3.72
				C208.57,136.95,208.84,135.8,208.86,134.49z"/>
		</g>
		<g id="XMLID_758_">
			<path class="st12" d="M123.04,58.25c-3.4,0.36-5.64,2.38-7.3,5.5c-2.04,3.84-2.33,8.6-1.53,12.51c0.99,4.86,2.62,7.92,5.75,11.76
				c2.98,3.66,6.57,6.76,10.17,9.8c3.24,2.73,8.24-0.01,10.83-2.26c4.01-3.48,8.08-6.9,12.41-9.97c3.24-2.29,6.78-4.57,8.44-8.18
				c1.43-3.1,1.38-8.4-1.55-10.69c1.39-1.93,2.79-3.91,3.52-6.17c0.74-2.26,0.72-4.89-0.6-6.86c-1.21-1.79-3.31-2.8-5.43-3.26
				c-2.68-0.59-5.49-0.62-8.22-0.83c-2.98-0.24-5.96-0.45-8.95-0.57c-2.68-0.11-5.41-0.13-7.97,0.65c-2.14,0.65-4.08,1.86-5.73,3.36
				c-0.83,0.76-1.59,1.6-2.29,2.49C124.46,55.71,122.82,58.23,123.04,58.25z"/>
			<path class="st12" d="M124.51,58.62c-0.04-0.73-0.45-1.54-0.89-2.16c-1.96-2.78-5.94-4.69-9.19-4.81
				c-3.49-0.13-6.91,0.97-9.25,2.84s-4.02,4.49-5.65,7.38c-1.62,2.88-3.28,6.2-6.09,7.93c-4.16,2.56-9.44,2.41-14.24,1.53
				c0.2,2.5,1.37,4.9,3.21,6.6c1.84,1.7,4.33,2.68,6.83,2.68c-1.34,0.82-2.99,1.12-4.53,0.8c2.99,4.96,11.05,4.3,15.6,2.12
				c3.7-1.77,6.67-5.02,8.1-8.86c0.96-2.58,1.25-5.36,2.07-7.98c0.82-2.62,2.36-5.24,4.89-6.32c1.83-0.77,3.86-0.61,5.76-0.24
				C122.41,60.39,124.63,60.7,124.51,58.62z"/>
			<g id="XMLID_774_">
				<path id="XMLID_775_" class="st5" d="M152.2,59.34c2.68,1.36,6.27,7.65,6.81,21.28c0.46,11.55-3.1,14.63-4.93,15.57
					c-1.82,0.94-5.48,0.67-9.03,0.3l0.36,5.78c0,0,10.25,7.38,2.23,8.92c-4.01,0.77-9.02-0.53-12.61-3.02
					c-3.68-2.55-5.01-4.86-5.01-4.86l-0.81-14.33c0,0-1.94,2.14-5.65-0.71c-3.06-2.35-4.3-6.56-2.19-9c2.11-2.43,6.33-2.07,8.14,1.1
					c0,0,2.14,1.08,3.96-2.89c0,0,4.6-0.47,9.7-3.88C150.27,68.84,151.71,61.69,152.2,59.34z"/>
			</g>
			<g id="XMLID_772_">
				<path id="XMLID_773_" class="st13" d="M143.89,77.93c0.09,0.83-0.48,1.57-1.27,1.66c-0.8,0.09-1.52-0.51-1.61-1.34
					c-0.09-0.83,0.48-1.57,1.27-1.66C143.07,76.5,143.79,77.1,143.89,77.93z"/>
			</g>
			<g id="XMLID_770_">
				<path id="XMLID_771_" class="st21" d="M144.12,86.68l5.56,1.58c-0.41,1.59-1.98,2.52-3.51,2.09
					C144.63,89.91,143.71,88.27,144.12,86.68z"/>
			</g>
			<path class="st6" d="M147.42,90.39c-0.1-1.46-1.35-2.58-2.82-2.5c-0.18,0.01-0.36,0.04-0.53,0.08c0.2,1.1,0.97,2.05,2.08,2.37
				C146.59,90.47,147.02,90.47,147.42,90.39z"/>
			<g id="XMLID_768_">
				<path id="XMLID_769_" class="st13" d="M156.71,72.59l-3.06-1.85c0.48-0.87,1.56-1.16,2.4-0.65
					C156.9,70.6,157.2,71.72,156.71,72.59z"/>
			</g>
			<g id="XMLID_766_">
				<path id="XMLID_767_" class="st13" d="M141.53,72.59l-3.25,1.49c-0.45-0.89-0.08-1.94,0.81-2.35
					C139.99,71.32,141.08,71.71,141.53,72.59z"/>
			</g>
			<g id="XMLID_764_">
				<path id="XMLID_765_" class="st13" d="M156.18,76.84c0.09,0.83-0.48,1.57-1.27,1.66c-0.8,0.09-1.52-0.51-1.61-1.34
					c-0.09-0.83,0.48-1.57,1.27-1.66C155.36,75.41,156.08,76.01,156.18,76.84z"/>
			</g>
			<g id="XMLID_762_">
				<polygon id="XMLID_763_" class="st6" points="149.17,76.44 149.94,85.16 154.45,83.45 				"/>
			</g>
			<g id="XMLID_760_">
				<path id="XMLID_761_" class="st6" d="M145.05,96.49c-3.74-0.25-11.5-1.97-12.88-4.91c0,0,0.51,1.87,2.92,3.68
					c2.4,1.81,10.11,3.54,10.11,3.54L145.05,96.49z"/>
			</g>
			<path id="XMLID_759_" class="st12" d="M129.5,80.35l0.38,6.07l0,0c2.28-0.14,4.01-2.11,3.87-4.39l-0.35-5.6L129.5,80.35z"/>
		</g>
	</g>
</g>
<g id="Coins_2_">
	<g id="Coins_4_">
		<g id="XMLID_346_">
			<g id="XMLID_410_">
				<path id="XMLID_411_" class="st2" d="M251.01,360.26c-1.23-2.08-3.28-4.03-6.15-5.68c-10.05-5.8-26.34-5.8-36.39,0
					c-2.87,1.66-4.92,3.61-6.15,5.68h-1.39v5.26h0.02c0.19,3.66,2.69,7.28,7.52,10.07c10.05,5.8,26.34,5.8,36.39,0
					c4.83-2.79,7.35-6.41,7.54-10.07v0v-5.26H251.01z"/>
			</g>
			<g id="XMLID_406_" class="st14">
				<g>
					<path id="XMLID_120_" d="M251.01,360.26c-1.23-2.08-3.28-4.03-6.15-5.68c-10.05-5.8-26.34-5.8-36.39,0
						c-2.87,1.66-4.92,3.61-6.15,5.68h-1.39v5.26h0.02c0.19,3.66,2.69,7.28,7.52,10.07c10.05,5.8,26.34,5.8,36.39,0
						c4.83-2.79,7.35-6.41,7.54-10.07v0v-5.26H251.01z"/>
				</g>
			</g>
			<path id="XMLID_396_" class="st15" d="M226.67,350.23c-6.59,0-13.17,1.45-18.2,4.35c-2.87,1.66-4.92,3.61-6.15,5.68h-1.39v5.26
				h0.02c0.19,3.66,2.69,7.28,7.52,10.07c5.02,2.9,11.61,4.35,18.2,4.35V350.23z"/>
			<path id="XMLID_395_" class="st15" d="M212.62,352.64c-1.46,0.55-2.86,1.2-4.14,1.94c-2.87,1.66-4.92,3.61-6.15,5.68h-1.39v5.26
				h0.02c0.19,3.66,2.69,7.28,7.52,10.07c1.29,0.74,2.68,1.39,4.14,1.94V352.64z"/>
			<path id="XMLID_394_" class="st16" d="M240.72,352.64c1.46,0.55,2.86,1.2,4.14,1.94c2.87,1.66,4.92,3.61,6.15,5.68h1.39v5.26l0,0
				c-0.19,3.66-2.7,7.28-7.54,10.07c-1.29,0.74-2.68,1.39-4.14,1.94V352.64z"/>
			<g id="XMLID_383_">
				<path id="XMLID_392_" class="st2" d="M244.86,349.76c-10.05-5.8-26.34-5.8-36.39,0c-10.05,5.8-10.05,15.21,0,21.01
					c10.05,5.8,26.34,5.8,36.39,0C254.91,364.97,254.91,355.56,244.86,349.76z"/>
				<path id="XMLID_390_" class="st4" d="M244.86,349.76c-10.05-5.8-26.34-5.8-36.39,0c-10.05,5.8-10.05,15.21,0,21.01
					c10.05,5.8,26.34,5.8,36.39,0C254.91,364.97,254.91,355.56,244.86,349.76z"/>
				<g id="XMLID_384_">
					<path id="XMLID_389_" class="st2" d="M238.52,353.61c-3.18-1.63-7.39-2.53-11.85-2.53c-4.46,0-8.67,0.9-11.85,2.53
						c-3.37,1.73-5.22,4.09-5.22,6.66s1.85,4.93,5.22,6.66c3.18,1.63,7.39,2.53,11.85,2.53c4.46,0,8.67-0.9,11.85-2.53
						c3.36-1.73,5.22-4.09,5.22-6.66S241.88,355.33,238.52,353.61z"/>
					<path id="XMLID_388_" class="st17" d="M238.52,353.61c-3.18-1.63-7.39-2.53-11.85-2.53c-4.46,0-8.67,0.9-11.85,2.53
						c-3.37,1.73-5.22,4.09-5.22,6.66s1.85,4.93,5.22,6.66c3.18,1.63,7.39,2.53,11.85,2.53c4.46,0,8.67-0.9,11.85-2.53
						c3.36-1.73,5.22-4.09,5.22-6.66S241.88,355.33,238.52,353.61z"/>
					<path id="XMLID_385_" class="st2" d="M244.31,350.73c-4.69-2.71-10.96-4.2-17.64-4.2c-6.68,0-12.94,1.5-17.63,4.2
						c-4.5,2.6-6.98,5.98-6.98,9.54c0,3.55,2.47,6.94,6.98,9.54c4.69,2.7,10.95,4.2,17.63,4.2c6.68,0,12.95-1.49,17.64-4.2
						c4.5-2.6,6.98-5.99,6.98-9.54C251.28,356.71,248.8,353.33,244.31,350.73z M238.52,366.93c-3.18,1.63-7.39,2.53-11.85,2.53
						c-4.46,0-8.67-0.9-11.85-2.53c-3.37-1.73-5.22-4.09-5.22-6.66s1.85-4.94,5.22-6.66c3.18-1.63,7.39-2.53,11.85-2.53
						c4.46,0,8.67,0.9,11.85,2.53c3.36,1.73,5.22,4.09,5.22,6.66S241.88,365.2,238.52,366.93z"/>
				</g>
			</g>
			<g id="XMLID_375_">
				<path id="XMLID_382_" class="st4" d="M238.11,366.14c6.32-3.24,6.32-8.5,0-11.75c-6.32-3.24-16.57-3.24-22.89,0
					s-6.32,8.5,0,11.75C221.55,369.38,231.79,369.38,238.11,366.14z"/>
				<path id="XMLID_381_" class="st2" d="M238.11,366.14c6.32-3.24,6.32-8.5,0-11.75c-6.32-3.24-16.57-3.24-22.89,0
					s-6.32,8.5,0,11.75C221.55,369.38,231.79,369.38,238.11,366.14z"/>
				<path id="XMLID_379_" class="st18" d="M238.11,366.14c6.32-3.24,6.32-8.5,0-11.75c-6.32-3.24-16.57-3.24-22.89,0
					s-6.32,8.5,0,11.75C221.55,369.38,231.79,369.38,238.11,366.14z"/>
				<path id="XMLID_378_" class="st2" d="M238.11,356.59c-6.32-3.24-16.57-3.24-22.89,0c-2.61,1.34-4.14,3.03-4.59,4.77
					c0.45,1.75,1.98,3.43,4.6,4.77c6.32,3.24,16.57,3.24,22.89,0c2.61-1.34,4.14-3.03,4.6-4.77
					C242.26,359.62,240.73,357.93,238.11,356.59z"/>
				<path id="XMLID_376_" class="st19" d="M238.11,356.59c-6.32-3.24-16.57-3.24-22.89,0c-2.61,1.34-4.14,3.03-4.59,4.77
					c0.45,1.75,1.98,3.43,4.6,4.77c6.32,3.24,16.57,3.24,22.89,0c2.61-1.34,4.14-3.03,4.6-4.77
					C242.26,359.62,240.73,357.93,238.11,356.59z"/>
			</g>
			<g id="XMLID_354_">
				<polygon id="XMLID_374_" class="st2" points="228.2,354.52 228.2,356.89 227.39,357.75 225.89,359.32 225.89,356.85 				"/>
				<polygon id="XMLID_373_" class="st20" points="228.2,354.52 228.2,356.89 227.39,357.75 225.89,359.32 225.89,356.85 				"/>
				<path id="XMLID_372_" class="st2" d="M225.89,356.84v1.4c-0.98,0.34-1.71,0.57-2.3,0.65c-0.37,0.05-0.69,0.05-0.99-0.04
					c-0.17-0.05-0.31-0.11-0.47-0.19c-0.57-0.34-0.66-0.85,0.42-1.47C223.71,356.52,224.9,356.46,225.89,356.84z"/>
				<path id="XMLID_370_" class="st22" d="M225.89,356.84v1.4c-0.98,0.34-1.71,0.57-2.3,0.65c-0.37,0.05-0.69,0.05-0.99-0.04
					c-0.17-0.05-0.31-0.11-0.47-0.19c-0.57-0.34-0.66-0.85,0.42-1.47C223.71,356.52,224.9,356.46,225.89,356.84z"/>
				<path id="XMLID_369_" class="st2" d="M236.64,363.58v2.05l-2.6,1.5l-1.92-1.11c-2.04,0.88-4.7,1.38-7.43,0.34v-2.05l1.18-1.17
					l-1.18,0.33c-1.86,0.43-3.81,0.48-5.79-0.66c-1.16-0.67-1.7-1.41-1.7-2.16v-1.99l0.21-0.87l-0.71-0.41v-2.05l1.92,1.11
					c-0.94,0.73-1.44,1.47-1.42,2.2v0.02c0.02,0.74,0.57,1.45,1.7,2.11c2.52,1.46,5.03,0.98,7.32,0.24c2.13-0.7,3.68-1.51,4.91-0.8
					c0.76,0.44,0.53,0.98-0.32,1.47c-1.37,0.79-2.85,0.55-3.66,0.21l-2.45,2.43c0.45,0.17,0.91,0.3,1.36,0.4
					c2.25,0.47,4.38,0,6.08-0.73l1.92,1.11L236.64,363.58z"/>
				<path id="XMLID_367_" class="st23" d="M217.2,358.62v0.02c0.02,0.74,0.57,1.45,1.7,2.11c2.52,1.46,5.03,0.98,7.32,0.24
					c2.13-0.7,3.68-1.51,4.91-0.8c0.76,0.44,0.53,0.98-0.32,1.47c-1.37,0.79-2.85,0.55-3.66,0.21l-2.45,2.43
					c0.45,0.17,0.91,0.3,1.36,0.4c2.25,0.47,4.38,0,6.08-0.73l1.92,1.11l2.6-1.5v2.05l-2.6,1.5l-1.92-1.11
					c-2.04,0.88-4.7,1.38-7.43,0.34v-2.05l1.18-1.17l-1.18,0.33c-1.86,0.43-3.81,0.48-5.79-0.66c-1.16-0.67-1.7-1.41-1.7-2.16v-1.99
					l0.21-0.87"/>
				<path id="XMLID_365_" class="st22" d="M216.7,355.31v2.05l0.71,0.41l0,0.01c0.23-0.45,0.64-0.91,1.22-1.36L216.7,355.31z"/>
				<g id="XMLID_363_">
					<path id="XMLID_364_" class="st2" d="M236.21,362.25c0,0.38-0.07,0.71-0.19,0.98l-1.3-0.75c0,0,1.31-0.53,1.47-1.97
						C236.2,361.07,236.21,362.19,236.21,362.25z"/>
				</g>
				<g id="XMLID_361_" class="st20">
					<path id="XMLID_362_" d="M236.21,362.25c0,0.38-0.07,0.71-0.19,0.98l-1.3-0.75c0,0,1.31-0.53,1.47-1.97
						C236.2,361.07,236.21,362.19,236.21,362.25z"/>
				</g>
				<g id="XMLID_358_">
					<path id="XMLID_359_" class="st2" d="M236.2,363.34l-1.49-0.86c0,0,1.49-0.61,1.49-2.28c0-0.07-0.01-0.14-0.01-0.2
						c-0.06-0.71-0.59-1.4-1.66-2.01c0-0.01,0-0.01,0-0.01c-1.14-0.66-2.31-0.9-3.45-0.9c-0.1,0-0.2,0.01-0.3,0.01h-0.03
						c-0.1,0.01-0.21,0.01-0.31,0.02c-0.09,0.01-0.18,0.01-0.27,0.03c-0.04,0.01-0.08,0.01-0.11,0.01
						c-0.07,0.01-0.14,0.01-0.21,0.03c-0.58,0.08-1.14,0.21-1.68,0.35c-0.26,0.07-0.53,0.15-0.78,0.23
						c-0.37,0.12-0.74,0.24-1.09,0.35c-0.14,0.05-0.28,0.1-0.41,0.14c-0.98,0.34-1.71,0.58-2.3,0.66c-0.37,0.05-0.69,0.04-0.99-0.04
						c-0.16-0.04-0.32-0.11-0.46-0.19c-0.58-0.33-0.67-0.84,0.42-1.47c1.16-0.67,2.34-0.74,3.34-0.35l2.31-2.33
						c-2.22-0.72-4.6-0.6-6.96,0.39l-1.92-1.11l-2.62,1.51l1.92,1.11c-0.94,0.73-1.44,1.48-1.43,2.21v0.02
						c0.03,0.74,0.57,1.45,1.7,2.11c2.53,1.46,5.03,0.98,7.32,0.24c2.13-0.69,3.68-1.51,4.91-0.8c0.77,0.44,0.53,0.98-0.32,1.47
						c-1.36,0.79-2.85,0.55-3.66,0.21l-2.46,2.44c0.46,0.17,0.91,0.3,1.36,0.4c0.81,0.17,1.6,0.22,2.37,0.17
						c1.36-0.08,2.62-0.44,3.71-0.91l1.92,1.11l2.59-1.5L236.2,363.34z"/>
				</g>
				<polygon id="XMLID_357_" class="st2" points="232.12,363.97 232.12,366.02 234.04,367.13 234.04,365.08 				"/>
				<polygon id="XMLID_355_" class="st22" points="232.12,363.97 232.12,366.02 234.04,367.13 234.04,365.08 				"/>
			</g>
			<g id="XMLID_347_">
				<polygon id="XMLID_353_" class="st0" points="216.7,355.31 219.32,353.8 221.24,354.91 219.33,354.11 				"/>
				<path id="XMLID_352_" class="st0" d="M222.56,357.19c1.16-0.67,2.34-0.74,3.34-0.35l2.31-2.33l-2.31,2.09
					C225.89,356.61,224.05,355.9,222.56,357.19z"/>
				<path id="XMLID_351_" class="st0" d="M224.68,364.31c0.46,0.17,0.91,0.3,1.36,0.4c0.81,0.17,1.6,0.22,2.37,0.17
					c0,0-1.85,0.05-3.34-0.67l2.07-2.34L224.68,364.31z"/>
				<polygon id="XMLID_350_" class="st0" points="232.12,363.97 234.04,364.84 236.63,363.59 234.04,365.08 				"/>
				<path id="XMLID_349_" class="st0" d="M209.23,351.08c6.81-4.14,17.43-4.55,17.43-4.55c-6.68,0-12.94,1.5-17.63,4.2
					c-4.5,2.6-6.98,5.98-6.98,9.54C202.06,360.27,202.3,355.29,209.23,351.08z"/>
				<path id="XMLID_348_" class="st0" d="M224.68,375.08c7.23,0.32,14.65-1.11,20.18-4.31c5.75-3.32,8.21-7.82,7.38-12.15
					c0,0,1.07,7.06-7.81,11.89C235.54,375.34,224.68,375.08,224.68,375.08z"/>
			</g>
		</g>
		<g id="XMLID_288_">
			<g id="XMLID_344_">
				<path id="XMLID_345_" class="st2" d="M249.25,352.83c-1.23-2.08-3.28-4.03-6.15-5.68c-10.05-5.8-26.34-5.8-36.39,0
					c-2.87,1.66-4.92,3.61-6.15,5.68h-1.39v5.26h0.02c0.19,3.66,2.69,7.28,7.52,10.07c10.05,5.8,26.34,5.8,36.39,0
					c4.83-2.79,7.35-6.41,7.54-10.07l0,0v-5.26H249.25z"/>
			</g>
			<g id="XMLID_340_" class="st14">
				<g>
					<path id="XMLID_78_" d="M249.25,352.83c-1.23-2.08-3.28-4.03-6.15-5.68c-10.05-5.8-26.34-5.8-36.39,0
						c-2.87,1.66-4.92,3.61-6.15,5.68h-1.39v5.26h0.02c0.19,3.66,2.69,7.28,7.52,10.07c10.05,5.8,26.34,5.8,36.39,0
						c4.83-2.79,7.35-6.41,7.54-10.07l0,0v-5.26H249.25z"/>
				</g>
			</g>
			<path id="XMLID_339_" class="st15" d="M224.91,342.8c-6.59,0-13.17,1.45-18.2,4.35c-2.87,1.66-4.92,3.61-6.15,5.68h-1.39v5.26
				h0.02c0.19,3.66,2.69,7.28,7.52,10.07c5.02,2.9,11.61,4.35,18.2,4.35V342.8z"/>
			<path id="XMLID_338_" class="st15" d="M210.85,345.21c-1.46,0.55-2.86,1.2-4.14,1.94c-2.87,1.66-4.92,3.61-6.15,5.68h-1.39v5.26
				h0.02c0.19,3.66,2.69,7.28,7.52,10.07c1.29,0.74,2.68,1.39,4.14,1.94V345.21z"/>
			<path id="XMLID_337_" class="st16" d="M238.96,345.21c1.46,0.55,2.86,1.2,4.14,1.94c2.87,1.66,4.92,3.61,6.15,5.68h1.39v5.26v0
				c-0.19,3.66-2.7,7.28-7.54,10.07c-1.29,0.74-2.68,1.39-4.14,1.94V345.21z"/>
			<g id="XMLID_326_">
				<path id="XMLID_335_" class="st2" d="M243.1,342.33c-10.05-5.8-26.34-5.8-36.39,0c-10.05,5.8-10.05,15.21,0,21.01
					c10.05,5.8,26.34,5.8,36.39,0C253.15,357.54,253.15,348.13,243.1,342.33z"/>
				<path id="XMLID_333_" class="st4" d="M243.1,342.33c-10.05-5.8-26.34-5.8-36.39,0c-10.05,5.8-10.05,15.21,0,21.01
					c10.05,5.8,26.34,5.8,36.39,0C253.15,357.54,253.15,348.13,243.1,342.33z"/>
				<g id="XMLID_327_">
					<path id="XMLID_332_" class="st2" d="M236.76,346.17c-3.18-1.63-7.39-2.53-11.85-2.53c-4.46,0-8.67,0.9-11.85,2.53
						c-3.37,1.73-5.22,4.09-5.22,6.66c0,2.57,1.85,4.93,5.22,6.66c3.18,1.63,7.39,2.53,11.85,2.53c4.46,0,8.67-0.9,11.85-2.53
						c3.36-1.73,5.22-4.09,5.22-6.66C241.97,350.27,240.12,347.9,236.76,346.17z"/>
					<path id="XMLID_331_" class="st17" d="M236.76,346.17c-3.18-1.63-7.39-2.53-11.85-2.53c-4.46,0-8.67,0.9-11.85,2.53
						c-3.37,1.73-5.22,4.09-5.22,6.66c0,2.57,1.85,4.93,5.22,6.66c3.18,1.63,7.39,2.53,11.85,2.53c4.46,0,8.67-0.9,11.85-2.53
						c3.36-1.73,5.22-4.09,5.22-6.66C241.97,350.27,240.12,347.9,236.76,346.17z"/>
					<path id="XMLID_328_" class="st2" d="M242.54,343.3c-4.69-2.71-10.96-4.2-17.64-4.2c-6.68,0-12.94,1.5-17.63,4.2
						c-4.5,2.6-6.98,5.98-6.98,9.54c0,3.55,2.47,6.94,6.98,9.54c4.69,2.7,10.95,4.2,17.63,4.2c6.68,0,12.94-1.49,17.64-4.2
						c4.5-2.6,6.98-5.99,6.98-9.54C249.52,349.28,247.04,345.9,242.54,343.3z M236.76,359.49c-3.18,1.63-7.39,2.53-11.85,2.53
						c-4.46,0-8.67-0.9-11.85-2.53c-3.37-1.73-5.22-4.09-5.22-6.66c0-2.57,1.85-4.94,5.22-6.66c3.18-1.63,7.39-2.53,11.85-2.53
						c4.46,0,8.67,0.9,11.85,2.53c3.36,1.73,5.22,4.09,5.22,6.66C241.97,355.4,240.12,357.77,236.76,359.49z"/>
				</g>
			</g>
			<g id="XMLID_318_">
				<path id="XMLID_325_" class="st4" d="M236.35,358.7c6.32-3.24,6.32-8.5,0-11.75c-6.32-3.24-16.57-3.24-22.89,0
					c-6.32,3.24-6.32,8.5,0,11.75C219.78,361.95,230.03,361.95,236.35,358.7z"/>
				<path id="XMLID_324_" class="st2" d="M236.35,358.7c6.32-3.24,6.32-8.5,0-11.75c-6.32-3.24-16.57-3.24-22.89,0
					c-6.32,3.24-6.32,8.5,0,11.75C219.78,361.95,230.03,361.95,236.35,358.7z"/>
				<path id="XMLID_322_" class="st18" d="M236.35,358.7c6.32-3.24,6.32-8.5,0-11.75c-6.32-3.24-16.57-3.24-22.89,0
					c-6.32,3.24-6.32,8.5,0,11.75C219.78,361.95,230.03,361.95,236.35,358.7z"/>
				<path id="XMLID_321_" class="st2" d="M236.35,349.16c-6.32-3.24-16.57-3.24-22.89,0c-2.61,1.34-4.14,3.03-4.59,4.77
					c0.45,1.75,1.98,3.43,4.6,4.77c6.32,3.24,16.57,3.24,22.89,0c2.61-1.34,4.14-3.03,4.59-4.77
					C240.49,352.19,238.96,350.5,236.35,349.16z"/>
				<path id="XMLID_319_" class="st19" d="M236.35,349.16c-6.32-3.24-16.57-3.24-22.89,0c-2.61,1.34-4.14,3.03-4.59,4.77
					c0.45,1.75,1.98,3.43,4.6,4.77c6.32,3.24,16.57,3.24,22.89,0c2.61-1.34,4.14-3.03,4.59-4.77
					C240.49,352.19,238.96,350.5,236.35,349.16z"/>
			</g>
			<g id="XMLID_297_">
				<polygon id="XMLID_317_" class="st2" points="226.44,347.09 226.44,349.46 225.63,350.31 224.13,351.88 224.13,349.41 				"/>
				<polygon id="XMLID_316_" class="st20" points="226.44,347.09 226.44,349.46 225.63,350.31 224.13,351.88 224.13,349.41 				"/>
				<path id="XMLID_315_" class="st2" d="M224.13,349.41v1.4c-0.98,0.34-1.71,0.57-2.3,0.65c-0.37,0.05-0.69,0.05-0.99-0.04
					c-0.17-0.05-0.31-0.11-0.47-0.19c-0.57-0.34-0.66-0.85,0.42-1.47C221.95,349.09,223.13,349.02,224.13,349.41z"/>
				<path id="XMLID_313_" class="st22" d="M224.13,349.41v1.4c-0.98,0.34-1.71,0.57-2.3,0.65c-0.37,0.05-0.69,0.05-0.99-0.04
					c-0.17-0.05-0.31-0.11-0.47-0.19c-0.57-0.34-0.66-0.85,0.42-1.47C221.95,349.09,223.13,349.02,224.13,349.41z"/>
				<path id="XMLID_312_" class="st2" d="M234.87,356.15v2.05l-2.6,1.5l-1.92-1.11c-2.04,0.88-4.7,1.38-7.43,0.34v-2.05l1.18-1.17
					l-1.18,0.33c-1.86,0.43-3.81,0.48-5.79-0.66c-1.16-0.67-1.7-1.41-1.7-2.16v-1.99l0.21-0.87l-0.71-0.41v-2.05l1.92,1.11
					c-0.94,0.73-1.44,1.47-1.42,2.2v0.02c0.02,0.74,0.57,1.45,1.7,2.11c2.52,1.46,5.03,0.98,7.32,0.24c2.13-0.7,3.68-1.51,4.91-0.8
					c0.76,0.44,0.53,0.98-0.32,1.47c-1.37,0.79-2.85,0.55-3.66,0.21l-2.45,2.43c0.45,0.17,0.91,0.3,1.36,0.4
					c2.25,0.47,4.38,0,6.08-0.73l1.92,1.11L234.87,356.15z"/>
				<path id="XMLID_310_" class="st23" d="M215.43,351.19v0.02c0.02,0.74,0.57,1.45,1.7,2.11c2.52,1.46,5.03,0.98,7.32,0.24
					c2.13-0.7,3.68-1.51,4.91-0.8c0.76,0.44,0.53,0.98-0.32,1.47c-1.37,0.79-2.85,0.55-3.66,0.21l-2.45,2.43
					c0.45,0.17,0.91,0.3,1.36,0.4c2.25,0.47,4.38,0,6.08-0.73l1.92,1.11l2.6-1.5v2.05l-2.6,1.5l-1.92-1.11
					c-2.04,0.88-4.7,1.38-7.43,0.34v-2.05l1.18-1.17l-1.18,0.33c-1.86,0.43-3.81,0.48-5.79-0.66c-1.16-0.67-1.7-1.41-1.7-2.16v-1.99
					l0.21-0.87"/>
				<path id="XMLID_308_" class="st22" d="M214.93,347.87v2.05l0.71,0.41l0,0.01c0.23-0.45,0.64-0.91,1.22-1.36L214.93,347.87z"/>
				<g id="XMLID_306_">
					<path id="XMLID_307_" class="st2" d="M234.44,354.81c0,0.38-0.07,0.71-0.19,0.98l-1.3-0.75c0,0,1.31-0.53,1.47-1.97
						C234.43,353.63,234.44,354.76,234.44,354.81z"/>
				</g>
				<g id="XMLID_304_" class="st20">
					<path id="XMLID_305_" d="M234.44,354.81c0,0.38-0.07,0.71-0.19,0.98l-1.3-0.75c0,0,1.31-0.53,1.47-1.97
						C234.43,353.63,234.44,354.76,234.44,354.81z"/>
				</g>
				<g id="XMLID_301_">
					<path id="XMLID_302_" class="st2" d="M234.44,355.9l-1.49-0.86c0,0,1.49-0.61,1.49-2.28c0-0.07-0.01-0.14-0.01-0.2
						c-0.06-0.71-0.59-1.4-1.66-2.01c0-0.01,0-0.01,0-0.01c-1.14-0.66-2.31-0.9-3.45-0.9c-0.1,0-0.2,0.01-0.3,0.01h-0.03
						c-0.1,0.01-0.21,0.01-0.31,0.02c-0.09,0.01-0.18,0.01-0.27,0.03c-0.04,0.01-0.08,0.01-0.11,0.01
						c-0.07,0.01-0.14,0.01-0.21,0.03c-0.58,0.08-1.14,0.21-1.68,0.35c-0.26,0.07-0.53,0.15-0.78,0.23
						c-0.37,0.12-0.74,0.24-1.09,0.35c-0.14,0.05-0.28,0.1-0.41,0.14c-0.98,0.34-1.71,0.58-2.3,0.66c-0.37,0.05-0.69,0.04-0.99-0.04
						c-0.16-0.04-0.32-0.11-0.46-0.19c-0.58-0.33-0.67-0.84,0.42-1.47c1.16-0.67,2.34-0.74,3.34-0.35l2.31-2.33
						c-2.22-0.72-4.6-0.6-6.96,0.39l-1.92-1.11l-2.62,1.51l1.92,1.11c-0.94,0.73-1.44,1.48-1.43,2.21v0.02
						c0.03,0.74,0.57,1.45,1.7,2.11c2.53,1.46,5.03,0.98,7.32,0.24c2.13-0.69,3.68-1.51,4.91-0.8c0.77,0.44,0.53,0.98-0.32,1.47
						c-1.36,0.79-2.85,0.55-3.66,0.21l-2.46,2.44c0.46,0.17,0.91,0.3,1.36,0.4c0.81,0.17,1.6,0.22,2.37,0.17
						c1.36-0.08,2.62-0.44,3.71-0.91l1.92,1.11l2.59-1.5L234.44,355.9z"/>
				</g>
				<polygon id="XMLID_300_" class="st2" points="230.36,356.54 230.36,358.59 232.28,359.7 232.28,357.65 				"/>
				<polygon id="XMLID_298_" class="st22" points="230.36,356.54 230.36,358.59 232.28,359.7 232.28,357.65 				"/>
			</g>
			<g id="XMLID_289_">
				<polygon id="XMLID_296_" class="st0" points="214.93,347.88 217.55,346.37 219.47,347.47 217.57,346.67 				"/>
				<path id="XMLID_295_" class="st0" d="M220.79,349.76c1.16-0.67,2.34-0.74,3.34-0.35l2.31-2.33l-2.31,2.09
					C224.13,349.17,222.29,348.47,220.79,349.76z"/>
				<path id="XMLID_294_" class="st0" d="M222.92,356.87c0.46,0.17,0.91,0.3,1.36,0.4c0.81,0.17,1.6,0.22,2.37,0.17
					c0,0-1.85,0.05-3.34-0.67l2.07-2.34L222.92,356.87z"/>
				<polygon id="XMLID_292_" class="st0" points="230.36,356.54 232.28,357.41 234.87,356.15 232.28,357.65 				"/>
				<path id="XMLID_291_" class="st0" d="M207.47,343.64c6.81-4.14,17.43-4.55,17.43-4.55c-6.68,0-12.94,1.5-17.63,4.2
					c-4.5,2.6-6.98,5.98-6.98,9.54C200.3,352.83,200.54,347.85,207.47,343.64z"/>
				<path id="XMLID_290_" class="st0" d="M222.92,367.64c7.23,0.32,14.65-1.11,20.18-4.31c5.75-3.32,8.21-7.82,7.38-12.15
					c0,0,1.07,7.06-7.81,11.89C233.78,367.9,222.92,367.64,222.92,367.64z"/>
			</g>
		</g>
		<g id="XMLID_230_">
			<g id="XMLID_286_">
				<path id="XMLID_287_" class="st2" d="M252.93,345.64c-1.23-2.08-3.28-4.03-6.15-5.68c-10.05-5.8-26.34-5.8-36.39,0
					c-2.87,1.66-4.92,3.61-6.15,5.68h-1.39v5.26h0.02c0.19,3.66,2.69,7.28,7.52,10.07c10.05,5.8,26.34,5.8,36.39,0
					c4.83-2.79,7.35-6.41,7.54-10.07v0v-5.26H252.93z"/>
			</g>
			<g id="XMLID_282_" class="st14">
				<g>
					<path id="XMLID_57_" d="M252.93,345.64c-1.23-2.08-3.28-4.03-6.15-5.68c-10.05-5.8-26.34-5.8-36.39,0
						c-2.87,1.66-4.92,3.61-6.15,5.68h-1.39v5.26h0.02c0.19,3.66,2.69,7.28,7.52,10.07c10.05,5.8,26.34,5.8,36.39,0
						c4.83-2.79,7.35-6.41,7.54-10.07v0v-5.26H252.93z"/>
				</g>
			</g>
			<path id="XMLID_281_" class="st15" d="M228.59,335.6c-6.59,0-13.17,1.45-18.2,4.35c-2.87,1.66-4.92,3.61-6.15,5.68h-1.39v5.26
				h0.02c0.19,3.66,2.69,7.28,7.52,10.07c5.02,2.9,11.61,4.35,18.2,4.35V335.6z"/>
			<path id="XMLID_280_" class="st15" d="M214.53,338.01c-1.46,0.55-2.86,1.2-4.14,1.94c-2.87,1.66-4.92,3.61-6.15,5.68h-1.39v5.26
				h0.02c0.19,3.66,2.69,7.28,7.52,10.07c1.29,0.74,2.68,1.39,4.14,1.94V338.01z"/>
			<path id="XMLID_279_" class="st16" d="M242.64,338.01c1.46,0.55,2.86,1.2,4.14,1.94c2.87,1.66,4.92,3.61,6.15,5.68h1.39v5.26v0
				c-0.19,3.66-2.7,7.28-7.54,10.07c-1.29,0.74-2.68,1.39-4.14,1.94V338.01z"/>
			<g id="XMLID_268_">
				<path id="XMLID_277_" class="st2" d="M246.78,335.13c-10.05-5.8-26.34-5.8-36.39,0c-10.05,5.8-10.05,15.21,0,21.01
					c10.05,5.8,26.34,5.8,36.39,0C256.83,350.34,256.83,340.94,246.78,335.13z"/>
				<path id="XMLID_275_" class="st4" d="M246.78,335.13c-10.05-5.8-26.34-5.8-36.39,0c-10.05,5.8-10.05,15.21,0,21.01
					c10.05,5.8,26.34,5.8,36.39,0C256.83,350.34,256.83,340.94,246.78,335.13z"/>
				<g id="XMLID_269_">
					<path id="XMLID_274_" class="st2" d="M240.44,338.98c-3.18-1.63-7.39-2.53-11.85-2.53c-4.46,0-8.67,0.9-11.85,2.53
						c-3.37,1.73-5.22,4.09-5.22,6.66c0,2.57,1.85,4.93,5.22,6.66c3.18,1.63,7.39,2.53,11.85,2.53c4.46,0,8.67-0.9,11.85-2.53
						c3.36-1.73,5.22-4.09,5.22-6.66C245.66,343.07,243.8,340.7,240.44,338.98z"/>
					<path id="XMLID_273_" class="st17" d="M240.44,338.98c-3.18-1.63-7.39-2.53-11.85-2.53c-4.46,0-8.67,0.9-11.85,2.53
						c-3.37,1.73-5.22,4.09-5.22,6.66c0,2.57,1.85,4.93,5.22,6.66c3.18,1.63,7.39,2.53,11.85,2.53c4.46,0,8.67-0.9,11.85-2.53
						c3.36-1.73,5.22-4.09,5.22-6.66C245.66,343.07,243.8,340.7,240.44,338.98z"/>
					<path id="XMLID_270_" class="st2" d="M246.22,336.11c-4.69-2.71-10.96-4.2-17.64-4.2c-6.68,0-12.94,1.49-17.63,4.2
						c-4.5,2.6-6.98,5.98-6.98,9.54c0,3.55,2.47,6.94,6.98,9.54c4.69,2.7,10.95,4.2,17.63,4.2c6.68,0,12.94-1.49,17.64-4.2
						c4.5-2.6,6.98-5.99,6.98-9.54C253.2,342.09,250.72,338.7,246.22,336.11z M240.44,352.3c-3.18,1.63-7.39,2.53-11.85,2.53
						c-4.46,0-8.67-0.9-11.85-2.53c-3.37-1.73-5.22-4.09-5.22-6.66c0-2.57,1.85-4.94,5.22-6.66c3.18-1.63,7.39-2.53,11.85-2.53
						c4.46,0,8.67,0.9,11.85,2.53c3.36,1.73,5.22,4.09,5.22,6.66C245.66,348.21,243.8,350.57,240.44,352.3z"/>
				</g>
			</g>
			<g id="XMLID_259_">
				<ellipse id="XMLID_267_" class="st4" cx="228.59" cy="345.64" rx="16.18" ry="8.31"/>
				<ellipse id="XMLID_266_" class="st2" cx="228.59" cy="345.64" rx="16.18" ry="8.31"/>
				<ellipse id="XMLID_264_" class="st18" cx="228.59" cy="345.64" rx="16.18" ry="8.31"/>
				<path id="XMLID_262_" class="st2" d="M240.03,341.97c-6.32-3.24-16.57-3.24-22.89,0c-2.61,1.34-4.14,3.03-4.59,4.77
					c0.45,1.75,1.98,3.43,4.6,4.77c6.32,3.24,16.57,3.24,22.89,0c2.61-1.34,4.14-3.03,4.59-4.77
					C244.17,344.99,242.64,343.31,240.03,341.97z"/>
				<path id="XMLID_260_" class="st19" d="M240.03,341.97c-6.32-3.24-16.57-3.24-22.89,0c-2.61,1.34-4.14,3.03-4.59,4.77
					c0.45,1.75,1.98,3.43,4.6,4.77c6.32,3.24,16.57,3.24,22.89,0c2.61-1.34,4.14-3.03,4.59-4.77
					C244.17,344.99,242.64,343.31,240.03,341.97z"/>
			</g>
			<g id="XMLID_238_">
				<polygon id="XMLID_258_" class="st2" points="230.12,339.89 230.12,342.26 229.31,343.12 227.81,344.69 227.81,342.22 				"/>
				<polygon id="XMLID_257_" class="st20" points="230.12,339.89 230.12,342.26 229.31,343.12 227.81,344.69 227.81,342.22 				"/>
				<path id="XMLID_256_" class="st2" d="M227.81,342.22v1.4c-0.98,0.34-1.71,0.57-2.3,0.65c-0.37,0.05-0.69,0.05-0.99-0.04
					c-0.17-0.05-0.31-0.11-0.47-0.19c-0.57-0.34-0.66-0.85,0.42-1.47C225.63,341.89,226.82,341.83,227.81,342.22z"/>
				<path id="XMLID_254_" class="st22" d="M227.81,342.22v1.4c-0.98,0.34-1.71,0.57-2.3,0.65c-0.37,0.05-0.69,0.05-0.99-0.04
					c-0.17-0.05-0.31-0.11-0.47-0.19c-0.57-0.34-0.66-0.85,0.42-1.47C225.63,341.89,226.82,341.83,227.81,342.22z"/>
				<path id="XMLID_253_" class="st2" d="M238.55,348.96v2.05l-2.6,1.5l-1.92-1.11c-2.04,0.88-4.7,1.38-7.43,0.34v-2.05l1.18-1.17
					l-1.18,0.33c-1.86,0.43-3.81,0.48-5.79-0.66c-1.16-0.67-1.7-1.41-1.7-2.16v-1.99l0.21-0.87l-0.71-0.41v-2.05l1.92,1.11
					c-0.94,0.73-1.44,1.47-1.42,2.2v0.02c0.02,0.74,0.57,1.45,1.7,2.11c2.52,1.46,5.03,0.98,7.32,0.24c2.13-0.7,3.68-1.51,4.91-0.8
					c0.76,0.44,0.53,0.98-0.32,1.47c-1.37,0.79-2.85,0.55-3.66,0.21l-2.45,2.43c0.45,0.17,0.91,0.3,1.36,0.4
					c2.25,0.47,4.38,0,6.08-0.73l1.92,1.11L238.55,348.96z"/>
				<path id="XMLID_251_" class="st23" d="M219.11,343.99v0.02c0.02,0.74,0.57,1.45,1.7,2.11c2.52,1.46,5.03,0.98,7.32,0.24
					c2.13-0.7,3.68-1.51,4.91-0.8c0.76,0.44,0.53,0.98-0.32,1.47c-1.37,0.79-2.85,0.55-3.66,0.21l-2.45,2.43
					c0.45,0.17,0.91,0.3,1.36,0.4c2.25,0.47,4.38,0,6.08-0.73l1.92,1.11l2.6-1.5v2.05l-2.6,1.5l-1.92-1.11
					c-2.04,0.88-4.7,1.38-7.43,0.34v-2.05l1.18-1.17l-1.18,0.33c-1.86,0.43-3.81,0.48-5.79-0.66c-1.16-0.67-1.7-1.41-1.7-2.16v-1.99
					l0.21-0.87"/>
				<path id="XMLID_249_" class="st22" d="M218.62,340.68v2.05l0.71,0.41l0,0.01c0.23-0.45,0.64-0.91,1.22-1.36L218.62,340.68z"/>
				<g id="XMLID_247_">
					<path id="XMLID_248_" class="st2" d="M238.12,347.62c0,0.38-0.07,0.71-0.19,0.98l-1.3-0.75c0,0,1.31-0.53,1.47-1.97
						C238.11,346.44,238.12,347.56,238.12,347.62z"/>
				</g>
				<g id="XMLID_245_" class="st20">
					<path id="XMLID_246_" d="M238.12,347.62c0,0.38-0.07,0.71-0.19,0.98l-1.3-0.75c0,0,1.31-0.53,1.47-1.97
						C238.11,346.44,238.12,347.56,238.12,347.62z"/>
				</g>
				<g id="XMLID_242_">
					<path id="XMLID_243_" class="st2" d="M238.12,348.71l-1.49-0.86c0,0,1.49-0.61,1.49-2.28c0-0.07-0.01-0.14-0.01-0.2
						c-0.06-0.71-0.59-1.4-1.66-2.01c0-0.01,0-0.01,0-0.01c-1.14-0.66-2.31-0.9-3.45-0.9c-0.1,0-0.2,0.01-0.3,0.01h-0.03
						c-0.1,0.01-0.21,0.01-0.31,0.02c-0.09,0.01-0.18,0.01-0.27,0.03c-0.04,0.01-0.08,0.01-0.11,0.01
						c-0.07,0.01-0.14,0.01-0.21,0.03c-0.58,0.08-1.14,0.21-1.68,0.35c-0.26,0.07-0.53,0.15-0.78,0.23
						c-0.37,0.12-0.74,0.24-1.09,0.35c-0.14,0.05-0.28,0.1-0.41,0.14c-0.98,0.34-1.71,0.58-2.3,0.66c-0.37,0.05-0.69,0.04-0.99-0.04
						c-0.16-0.05-0.32-0.11-0.46-0.19c-0.58-0.33-0.67-0.84,0.42-1.47c1.16-0.67,2.34-0.74,3.34-0.35l2.31-2.33
						c-2.22-0.72-4.6-0.6-6.96,0.39l-1.92-1.11l-2.62,1.51l1.92,1.11c-0.94,0.73-1.44,1.48-1.43,2.21v0.02
						c0.03,0.74,0.57,1.45,1.7,2.11c2.53,1.46,5.03,0.98,7.32,0.24c2.13-0.69,3.68-1.51,4.91-0.8c0.77,0.44,0.53,0.98-0.32,1.47
						c-1.36,0.79-2.85,0.55-3.66,0.21l-2.46,2.44c0.46,0.17,0.91,0.3,1.36,0.4c0.81,0.17,1.6,0.22,2.37,0.17
						c1.36-0.08,2.62-0.44,3.71-0.91l1.92,1.11l2.59-1.5L238.12,348.71z"/>
				</g>
				<polygon id="XMLID_241_" class="st2" points="234.04,349.34 234.04,351.39 235.96,352.5 235.96,350.45 				"/>
				<polygon id="XMLID_239_" class="st22" points="234.04,349.34 234.04,351.39 235.96,352.5 235.96,350.45 				"/>
			</g>
			<g id="XMLID_231_">
				<polygon id="XMLID_237_" class="st0" points="218.62,340.68 221.23,339.17 223.16,340.28 221.25,339.48 				"/>
				<path id="XMLID_236_" class="st0" d="M224.47,342.57c1.16-0.67,2.34-0.74,3.34-0.35l2.31-2.33l-2.31,2.09
					C227.81,341.98,225.97,341.28,224.47,342.57z"/>
				<path id="XMLID_235_" class="st0" d="M226.6,349.68c0.46,0.17,0.91,0.3,1.36,0.4c0.81,0.17,1.6,0.22,2.37,0.17
					c0,0-1.85,0.05-3.34-0.67l2.07-2.34L226.6,349.68z"/>
				<polygon id="XMLID_234_" class="st0" points="234.04,349.34 235.96,350.21 238.55,348.96 235.96,350.45 				"/>
				<path id="XMLID_233_" class="st0" d="M211.15,336.45c6.81-4.14,17.43-4.55,17.43-4.55c-6.68,0-12.94,1.49-17.63,4.2
					c-4.5,2.6-6.98,5.98-6.98,9.54C203.98,345.64,204.22,340.66,211.15,336.45z"/>
				<path id="XMLID_232_" class="st0" d="M226.6,360.45c7.23,0.32,14.65-1.11,20.18-4.31c5.75-3.32,8.21-7.82,7.38-12.15
					c0,0,1.07,7.06-7.81,11.89C237.46,360.71,226.6,360.45,226.6,360.45z"/>
			</g>
		</g>
		<g id="XMLID_173_">
			<g id="XMLID_228_">
				<path id="XMLID_229_" class="st2" d="M250.42,338.36c-1.23-2.08-3.28-4.03-6.15-5.68c-10.05-5.8-26.34-5.8-36.39,0
					c-2.87,1.66-4.92,3.61-6.15,5.68h-1.39v5.26h0.02c0.19,3.66,2.69,7.28,7.52,10.07c10.05,5.8,26.34,5.8,36.39,0
					c4.83-2.79,7.35-6.41,7.54-10.07l0,0v-5.26H250.42z"/>
			</g>
			<g id="XMLID_224_" class="st14">
				<g>
					<path id="XMLID_48_" d="M250.42,338.36c-1.23-2.08-3.28-4.03-6.15-5.68c-10.05-5.8-26.34-5.8-36.39,0
						c-2.87,1.66-4.92,3.61-6.15,5.68h-1.39v5.26h0.02c0.19,3.66,2.69,7.28,7.52,10.07c10.05,5.8,26.34,5.8,36.39,0
						c4.83-2.79,7.35-6.41,7.54-10.07l0,0v-5.26H250.42z"/>
				</g>
			</g>
			<path id="XMLID_223_" class="st15" d="M226.08,328.32c-6.59,0-13.17,1.45-18.2,4.35c-2.87,1.66-4.92,3.61-6.15,5.68h-1.39v5.26
				h0.02c0.19,3.66,2.69,7.28,7.52,10.07c5.02,2.9,11.61,4.35,18.2,4.35V328.32z"/>
			<path id="XMLID_222_" class="st15" d="M212.02,330.73c-1.46,0.55-2.86,1.2-4.14,1.94c-2.87,1.66-4.92,3.61-6.15,5.68h-1.39v5.26
				h0.02c0.19,3.66,2.69,7.28,7.52,10.07c1.29,0.74,2.68,1.39,4.14,1.94V330.73z"/>
			<path id="XMLID_221_" class="st16" d="M240.13,330.73c1.46,0.55,2.86,1.2,4.14,1.94c2.87,1.66,4.92,3.61,6.15,5.68h1.39v5.26v0
				c-0.19,3.66-2.7,7.28-7.54,10.07c-1.29,0.74-2.68,1.39-4.14,1.94V330.73z"/>
			<g id="XMLID_210_">
				<path id="XMLID_219_" class="st2" d="M244.27,327.86c-10.05-5.8-26.34-5.8-36.39,0c-10.05,5.8-10.05,15.21,0,21.01
					c10.05,5.8,26.34,5.8,36.39,0C254.32,343.06,254.32,333.66,244.27,327.86z"/>
				<path id="XMLID_217_" class="st4" d="M244.27,327.86c-10.05-5.8-26.34-5.8-36.39,0c-10.05,5.8-10.05,15.21,0,21.01
					c10.05,5.8,26.34,5.8,36.39,0C254.32,343.06,254.32,333.66,244.27,327.86z"/>
				<g id="XMLID_211_">
					<path id="XMLID_216_" class="st2" d="M237.92,331.7c-3.18-1.63-7.39-2.53-11.85-2.53c-4.46,0-8.67,0.9-11.85,2.53
						c-3.37,1.73-5.22,4.09-5.22,6.66c0,2.57,1.85,4.93,5.22,6.66c3.18,1.63,7.39,2.53,11.85,2.53c4.46,0,8.67-0.9,11.85-2.53
						c3.36-1.73,5.22-4.09,5.22-6.66C243.14,335.79,241.29,333.43,237.92,331.7z"/>
					<path id="XMLID_215_" class="st17" d="M237.92,331.7c-3.18-1.63-7.39-2.53-11.85-2.53c-4.46,0-8.67,0.9-11.85,2.53
						c-3.37,1.73-5.22,4.09-5.22,6.66c0,2.57,1.85,4.93,5.22,6.66c3.18,1.63,7.39,2.53,11.85,2.53c4.46,0,8.67-0.9,11.85-2.53
						c3.36-1.73,5.22-4.09,5.22-6.66C243.14,335.79,241.29,333.43,237.92,331.7z"/>
					<path id="XMLID_212_" class="st2" d="M243.71,328.83c-4.69-2.71-10.96-4.2-17.64-4.2c-6.68,0-12.94,1.49-17.63,4.2
						c-4.5,2.6-6.98,5.98-6.98,9.54c0,3.55,2.47,6.94,6.98,9.54c4.69,2.7,10.95,4.2,17.63,4.2c6.68,0,12.95-1.49,17.64-4.2
						c4.5-2.6,6.98-5.99,6.98-9.54C250.69,334.81,248.21,331.43,243.71,328.83z M237.92,345.02c-3.18,1.63-7.39,2.53-11.85,2.53
						c-4.46,0-8.67-0.9-11.85-2.53c-3.37-1.73-5.22-4.09-5.22-6.66c0-2.57,1.85-4.94,5.22-6.66c3.18-1.63,7.39-2.53,11.85-2.53
						c4.46,0,8.67,0.9,11.85,2.53c3.36,1.73,5.22,4.09,5.22,6.66C243.14,340.93,241.29,343.29,237.92,345.02z"/>
				</g>
			</g>
			<g id="XMLID_202_">
				<ellipse id="XMLID_209_" class="st4" cx="226.07" cy="338.36" rx="16.18" ry="8.31"/>
				<ellipse id="XMLID_208_" class="st2" cx="226.07" cy="338.36" rx="16.18" ry="8.31"/>
				<ellipse id="XMLID_206_" class="st18" cx="226.07" cy="338.36" rx="16.18" ry="8.31"/>
				<path id="XMLID_205_" class="st2" d="M237.52,334.69c-6.32-3.24-16.57-3.24-22.89,0c-2.61,1.34-4.14,3.03-4.59,4.77
					c0.45,1.75,1.98,3.43,4.6,4.77c6.32,3.24,16.57,3.24,22.89,0c2.61-1.34,4.14-3.03,4.59-4.77
					C241.66,337.71,240.13,336.03,237.52,334.69z"/>
				<path id="XMLID_203_" class="st19" d="M237.52,334.69c-6.32-3.24-16.57-3.24-22.89,0c-2.61,1.34-4.14,3.03-4.59,4.77
					c0.45,1.75,1.98,3.43,4.6,4.77c6.32,3.24,16.57,3.24,22.89,0c2.61-1.34,4.14-3.03,4.59-4.77
					C241.66,337.71,240.13,336.03,237.52,334.69z"/>
			</g>
			<g id="XMLID_181_">
				<polygon id="XMLID_201_" class="st2" points="227.61,332.61 227.61,334.99 226.8,335.84 225.3,337.41 225.3,334.94 				"/>
				<polygon id="XMLID_200_" class="st20" points="227.61,332.61 227.61,334.99 226.8,335.84 225.3,337.41 225.3,334.94 				"/>
				<path id="XMLID_199_" class="st2" d="M225.3,334.94v1.4c-0.98,0.34-1.71,0.57-2.3,0.65c-0.37,0.05-0.69,0.05-0.99-0.04
					c-0.17-0.05-0.31-0.11-0.47-0.19c-0.57-0.34-0.66-0.85,0.42-1.47C223.11,334.62,224.3,334.55,225.3,334.94z"/>
				<path id="XMLID_197_" class="st22" d="M225.3,334.94v1.4c-0.98,0.34-1.71,0.57-2.3,0.65c-0.37,0.05-0.69,0.05-0.99-0.04
					c-0.17-0.05-0.31-0.11-0.47-0.19c-0.57-0.34-0.66-0.85,0.42-1.47C223.11,334.62,224.3,334.55,225.3,334.94z"/>
				<path id="XMLID_196_" class="st2" d="M236.04,341.68v2.05l-2.6,1.5l-1.92-1.11c-2.04,0.88-4.7,1.38-7.43,0.34v-2.05l1.18-1.17
					l-1.18,0.33c-1.86,0.43-3.81,0.48-5.79-0.66c-1.16-0.67-1.7-1.41-1.7-2.16v-1.99l0.21-0.87l-0.71-0.41v-2.05l1.92,1.11
					c-0.94,0.73-1.43,1.47-1.42,2.2v0.02c0.02,0.74,0.57,1.45,1.7,2.11c2.52,1.46,5.03,0.98,7.32,0.24c2.13-0.7,3.68-1.51,4.91-0.8
					c0.76,0.44,0.53,0.98-0.32,1.47c-1.37,0.79-2.85,0.55-3.66,0.21l-2.45,2.43c0.45,0.17,0.91,0.3,1.36,0.4
					c2.25,0.47,4.38,0,6.08-0.73l1.92,1.11L236.04,341.68z"/>
				<path id="XMLID_194_" class="st23" d="M216.6,336.71v0.02c0.02,0.74,0.57,1.45,1.7,2.11c2.52,1.46,5.03,0.98,7.32,0.24
					c2.13-0.7,3.68-1.51,4.91-0.8c0.76,0.44,0.53,0.98-0.32,1.47c-1.37,0.79-2.85,0.55-3.66,0.21l-2.45,2.43
					c0.45,0.17,0.91,0.3,1.36,0.4c2.25,0.47,4.38,0,6.08-0.73l1.92,1.11l2.6-1.5v2.05l-2.6,1.5l-1.92-1.11
					c-2.04,0.88-4.7,1.38-7.43,0.34v-2.05l1.18-1.17l-1.18,0.33c-1.86,0.43-3.81,0.48-5.79-0.66c-1.16-0.67-1.7-1.41-1.7-2.16v-1.99
					l0.21-0.87"/>
				<path id="XMLID_192_" class="st22" d="M216.1,333.4v2.05l0.71,0.41l0,0.01c0.23-0.45,0.64-0.91,1.22-1.36L216.1,333.4z"/>
				<g id="XMLID_190_">
					<path id="XMLID_191_" class="st2" d="M235.61,340.34c0,0.38-0.07,0.71-0.19,0.98l-1.3-0.75c0,0,1.31-0.53,1.47-1.97
						C235.6,339.16,235.61,340.28,235.61,340.34z"/>
				</g>
				<g id="XMLID_188_" class="st20">
					<path id="XMLID_189_" d="M235.61,340.34c0,0.38-0.07,0.71-0.19,0.98l-1.3-0.75c0,0,1.31-0.53,1.47-1.97
						C235.6,339.16,235.61,340.28,235.61,340.34z"/>
				</g>
				<g id="XMLID_185_">
					<path id="XMLID_186_" class="st2" d="M235.61,341.43l-1.49-0.86c0,0,1.49-0.61,1.49-2.28c0-0.07-0.01-0.14-0.01-0.2
						c-0.06-0.71-0.59-1.4-1.66-2.01c0-0.01,0-0.01,0-0.01c-1.14-0.66-2.31-0.9-3.45-0.9c-0.1,0-0.2,0.01-0.3,0.01h-0.03
						c-0.1,0.01-0.21,0.01-0.31,0.02c-0.09,0.01-0.18,0.01-0.27,0.03c-0.04,0.01-0.08,0.01-0.11,0.01
						c-0.07,0.01-0.14,0.01-0.21,0.03c-0.58,0.08-1.14,0.21-1.68,0.35c-0.26,0.07-0.53,0.15-0.78,0.23
						c-0.37,0.12-0.74,0.24-1.09,0.35c-0.14,0.05-0.28,0.1-0.41,0.14c-0.98,0.34-1.71,0.58-2.3,0.66c-0.37,0.05-0.69,0.05-0.99-0.04
						c-0.16-0.04-0.32-0.11-0.46-0.19c-0.58-0.33-0.67-0.84,0.42-1.47c1.16-0.67,2.34-0.74,3.34-0.35l2.31-2.33
						c-2.22-0.72-4.6-0.6-6.96,0.39l-1.92-1.11l-2.62,1.51l1.92,1.11c-0.94,0.73-1.44,1.48-1.43,2.21v0.02
						c0.03,0.74,0.57,1.45,1.7,2.11c2.53,1.46,5.03,0.98,7.32,0.24c2.13-0.69,3.68-1.51,4.91-0.8c0.77,0.44,0.53,0.98-0.32,1.47
						c-1.36,0.79-2.85,0.55-3.66,0.21l-2.46,2.44c0.46,0.17,0.91,0.3,1.36,0.4c0.81,0.17,1.6,0.22,2.37,0.17
						c1.36-0.08,2.62-0.44,3.71-0.91l1.92,1.11l2.59-1.5L235.61,341.43z"/>
				</g>
				<polygon id="XMLID_184_" class="st2" points="231.52,342.07 231.52,344.11 233.45,345.22 233.45,343.18 				"/>
				<polygon id="XMLID_182_" class="st22" points="231.52,342.07 231.52,344.11 233.45,345.22 233.45,343.18 				"/>
			</g>
			<g id="XMLID_174_">
				<polygon id="XMLID_180_" class="st0" points="216.1,333.4 218.72,331.89 220.64,333 218.74,332.2 				"/>
				<path id="XMLID_179_" class="st0" d="M221.96,335.29c1.16-0.67,2.34-0.74,3.34-0.35l2.31-2.33l-2.31,2.09
					C225.3,334.7,223.46,334,221.96,335.29z"/>
				<path id="XMLID_178_" class="st0" d="M224.09,342.4c0.46,0.17,0.91,0.3,1.36,0.4c0.81,0.17,1.6,0.22,2.37,0.17
					c0,0-1.85,0.05-3.34-0.67l2.07-2.34L224.09,342.4z"/>
				<polygon id="XMLID_177_" class="st0" points="231.52,342.07 233.45,342.93 236.04,341.68 233.45,343.18 				"/>
				<path id="XMLID_176_" class="st0" d="M208.64,329.17c6.81-4.14,17.43-4.55,17.43-4.55c-6.68,0-12.94,1.49-17.63,4.2
					c-4.5,2.6-6.98,5.98-6.98,9.54C201.46,338.36,201.71,333.38,208.64,329.17z"/>
				<path id="XMLID_175_" class="st0" d="M224.09,353.17c7.23,0.32,14.65-1.11,20.18-4.31c5.75-3.32,8.21-7.82,7.38-12.15
					c0,0,1.07,7.06-7.81,11.89C234.95,353.43,224.09,353.17,224.09,353.17z"/>
			</g>
		</g>
	</g>
	<g id="Coins_3_">
		<g id="XMLID_110_">
			<g id="XMLID_171_">
				<path id="XMLID_172_" class="st2" d="M285.81,391.65c-1.23-2.08-3.28-4.03-6.15-5.68c-10.05-5.8-26.34-5.8-36.39,0
					c-2.87,1.66-4.92,3.61-6.15,5.68h-1.39v5.26h0.02c0.19,3.66,2.69,7.28,7.52,10.07c10.05,5.8,26.34,5.8,36.39,0
					c4.83-2.79,7.35-6.41,7.54-10.07v0v-5.26H285.81z"/>
			</g>
			<g id="XMLID_167_" class="st14">
				<g>
					<path id="XMLID_33_" d="M285.81,391.65c-1.23-2.08-3.28-4.03-6.15-5.68c-10.05-5.8-26.34-5.8-36.39,0
						c-2.87,1.66-4.92,3.61-6.15,5.68h-1.39v5.26h0.02c0.19,3.66,2.69,7.28,7.52,10.07c10.05,5.8,26.34,5.8,36.39,0
						c4.83-2.79,7.35-6.41,7.54-10.07v0v-5.26H285.81z"/>
				</g>
			</g>
			<path id="XMLID_166_" class="st15" d="M261.47,381.61c-6.59,0-13.17,1.45-18.2,4.35c-2.87,1.66-4.92,3.61-6.15,5.68h-1.39v5.26
				h0.02c0.19,3.66,2.69,7.28,7.52,10.07c5.02,2.9,11.61,4.35,18.2,4.35V381.61z"/>
			<path id="XMLID_165_" class="st15" d="M247.41,384.03c-1.46,0.55-2.86,1.2-4.14,1.94c-2.87,1.66-4.92,3.61-6.15,5.68h-1.39v5.26
				h0.02c0.19,3.66,2.69,7.28,7.52,10.07c1.29,0.74,2.68,1.39,4.14,1.94V384.03z"/>
			<path id="XMLID_164_" class="st16" d="M275.52,384.03c1.46,0.55,2.86,1.2,4.14,1.94c2.87,1.66,4.92,3.61,6.15,5.68h1.39v5.26v0
				c-0.19,3.66-2.7,7.28-7.54,10.07c-1.29,0.74-2.68,1.39-4.14,1.94V384.03z"/>
			<g id="XMLID_153_">
				<path id="XMLID_162_" class="st2" d="M279.66,381.15c-10.05-5.8-26.34-5.8-36.39,0c-10.05,5.8-10.05,15.21,0,21.01
					c10.05,5.8,26.34,5.8,36.39,0S289.71,386.95,279.66,381.15z"/>
				<path id="XMLID_160_" class="st4" d="M279.66,381.15c-10.05-5.8-26.34-5.8-36.39,0c-10.05,5.8-10.05,15.21,0,21.01
					c10.05,5.8,26.34,5.8,36.39,0S289.71,386.95,279.66,381.15z"/>
				<g id="XMLID_154_">
					<path id="XMLID_159_" class="st2" d="M273.32,384.99c-3.18-1.63-7.39-2.53-11.85-2.53c-4.46,0-8.67,0.9-11.85,2.53
						c-3.37,1.73-5.22,4.09-5.22,6.66c0,2.57,1.85,4.93,5.22,6.66c3.18,1.63,7.39,2.53,11.85,2.53c4.46,0,8.67-0.9,11.85-2.53
						c3.36-1.73,5.22-4.09,5.22-6.66C278.53,389.09,276.68,386.72,273.32,384.99z"/>
					<path id="XMLID_158_" class="st17" d="M273.32,384.99c-3.18-1.63-7.39-2.53-11.85-2.53c-4.46,0-8.67,0.9-11.85,2.53
						c-3.37,1.73-5.22,4.09-5.22,6.66c0,2.57,1.85,4.93,5.22,6.66c3.18,1.63,7.39,2.53,11.85,2.53c4.46,0,8.67-0.9,11.85-2.53
						c3.36-1.73,5.22-4.09,5.22-6.66C278.53,389.09,276.68,386.72,273.32,384.99z"/>
					<path id="XMLID_155_" class="st2" d="M279.1,382.12c-4.69-2.71-10.96-4.2-17.64-4.2c-6.68,0-12.94,1.5-17.63,4.2
						c-4.5,2.6-6.98,5.98-6.98,9.54c0,3.55,2.47,6.94,6.98,9.54c4.69,2.7,10.95,4.2,17.63,4.2c6.68,0,12.94-1.49,17.64-4.2
						c4.5-2.6,6.98-5.99,6.98-9.54C286.08,388.1,283.6,384.72,279.1,382.12z M273.32,398.31c-3.18,1.63-7.39,2.53-11.85,2.53
						c-4.46,0-8.67-0.9-11.85-2.53c-3.37-1.73-5.22-4.09-5.22-6.66c0-2.57,1.85-4.94,5.22-6.66c3.18-1.63,7.39-2.53,11.85-2.53
						c4.46,0,8.67,0.9,11.85,2.53c3.36,1.73,5.22,4.09,5.22,6.66C278.53,394.22,276.68,396.59,273.32,398.31z"/>
				</g>
			</g>
			<g id="XMLID_145_">
				<path id="XMLID_152_" class="st4" d="M272.91,397.52c6.32-3.24,6.32-8.5,0-11.75c-6.32-3.24-16.57-3.24-22.89,0
					c-6.32,3.24-6.32,8.5,0,11.75C256.34,400.77,266.59,400.77,272.91,397.52z"/>
				<path id="XMLID_151_" class="st2" d="M272.91,397.52c6.32-3.24,6.32-8.5,0-11.75c-6.32-3.24-16.57-3.24-22.89,0
					c-6.32,3.24-6.32,8.5,0,11.75C256.34,400.77,266.59,400.77,272.91,397.52z"/>
				<path id="XMLID_149_" class="st18" d="M272.91,397.52c6.32-3.24,6.32-8.5,0-11.75c-6.32-3.24-16.57-3.24-22.89,0
					c-6.32,3.24-6.32,8.5,0,11.75C256.34,400.77,266.59,400.77,272.91,397.52z"/>
				<path id="XMLID_148_" class="st2" d="M272.91,387.98c-6.32-3.24-16.57-3.24-22.89,0c-2.61,1.34-4.14,3.03-4.59,4.77
					c0.45,1.75,1.98,3.43,4.6,4.77c6.32,3.24,16.57,3.24,22.89,0c2.61-1.34,4.14-3.03,4.6-4.77
					C277.05,391.01,275.52,389.32,272.91,387.98z"/>
				<path id="XMLID_146_" class="st19" d="M272.91,387.98c-6.32-3.24-16.57-3.24-22.89,0c-2.61,1.34-4.14,3.03-4.59,4.77
					c0.45,1.75,1.98,3.43,4.6,4.77c6.32,3.24,16.57,3.24,22.89,0c2.61-1.34,4.14-3.03,4.6-4.77
					C277.05,391.01,275.52,389.32,272.91,387.98z"/>
			</g>
			<g id="XMLID_124_">
				<polygon id="XMLID_144_" class="st2" points="263,385.91 263,388.28 262.19,389.13 260.69,390.7 260.69,388.23 				"/>
				<polygon id="XMLID_143_" class="st20" points="263,385.91 263,388.28 262.19,389.13 260.69,390.7 260.69,388.23 				"/>
				<path id="XMLID_142_" class="st2" d="M260.69,388.23v1.4c-0.98,0.34-1.71,0.57-2.3,0.65c-0.37,0.05-0.69,0.05-0.99-0.04
					c-0.17-0.05-0.31-0.11-0.47-0.19c-0.57-0.34-0.66-0.85,0.42-1.47C258.51,387.91,259.7,387.84,260.69,388.23z"/>
				<path id="XMLID_140_" class="st22" d="M260.69,388.23v1.4c-0.98,0.34-1.71,0.57-2.3,0.65c-0.37,0.05-0.69,0.05-0.99-0.04
					c-0.17-0.05-0.31-0.11-0.47-0.19c-0.57-0.34-0.66-0.85,0.42-1.47C258.51,387.91,259.7,387.84,260.69,388.23z"/>
				<path id="XMLID_139_" class="st2" d="M271.43,394.97v2.05l-2.6,1.5l-1.92-1.11c-2.04,0.88-4.7,1.38-7.43,0.34v-2.05l1.18-1.17
					l-1.18,0.33c-1.86,0.43-3.81,0.48-5.79-0.66c-1.16-0.67-1.7-1.41-1.7-2.16v-1.99l0.21-0.87l-0.71-0.41v-2.05l1.92,1.11
					c-0.94,0.73-1.44,1.47-1.42,2.2v0.02c0.02,0.74,0.57,1.45,1.7,2.11c2.52,1.46,5.03,0.98,7.32,0.24c2.13-0.7,3.68-1.51,4.91-0.8
					c0.76,0.44,0.53,0.98-0.32,1.47c-1.37,0.79-2.85,0.55-3.66,0.21l-2.45,2.43c0.45,0.17,0.91,0.3,1.36,0.4
					c2.25,0.47,4.38,0,6.08-0.73l1.92,1.11L271.43,394.97z"/>
				<path id="XMLID_137_" class="st23" d="M251.99,390.01v0.02c0.02,0.74,0.57,1.45,1.7,2.11c2.52,1.46,5.03,0.98,7.32,0.24
					c2.13-0.7,3.68-1.51,4.91-0.8c0.76,0.44,0.53,0.98-0.32,1.47c-1.37,0.79-2.85,0.55-3.66,0.21l-2.45,2.43
					c0.45,0.17,0.91,0.3,1.36,0.4c2.25,0.47,4.38,0,6.08-0.73l1.92,1.11l2.6-1.5v2.05l-2.6,1.5l-1.92-1.11
					c-2.04,0.88-4.7,1.38-7.43,0.34v-2.05l1.18-1.17l-1.18,0.33c-1.86,0.43-3.81,0.48-5.79-0.66c-1.16-0.67-1.7-1.41-1.7-2.16v-1.99
					l0.21-0.87"/>
				<path id="XMLID_135_" class="st22" d="M251.49,386.69v2.05l0.71,0.41l0,0.01c0.23-0.45,0.64-0.91,1.22-1.36L251.49,386.69z"/>
				<g id="XMLID_133_">
					<path id="XMLID_134_" class="st2" d="M271,393.63c0,0.38-0.07,0.71-0.19,0.98l-1.3-0.75c0,0,1.31-0.53,1.47-1.97
						C270.99,392.45,271,393.58,271,393.63z"/>
				</g>
				<g id="XMLID_131_" class="st20">
					<path id="XMLID_132_" d="M271,393.63c0,0.38-0.07,0.71-0.19,0.98l-1.3-0.75c0,0,1.31-0.53,1.47-1.97
						C270.99,392.45,271,393.58,271,393.63z"/>
				</g>
				<g id="XMLID_128_">
					<path id="XMLID_129_" class="st2" d="M271,394.72l-1.49-0.86c0,0,1.49-0.61,1.49-2.28c0-0.07-0.01-0.14-0.01-0.2
						c-0.06-0.71-0.59-1.4-1.66-2.01c0-0.01,0-0.01,0-0.01c-1.14-0.66-2.31-0.9-3.45-0.9c-0.1,0-0.2,0.01-0.3,0.01h-0.03
						c-0.1,0.01-0.21,0.01-0.31,0.02c-0.09,0.01-0.18,0.01-0.27,0.03c-0.04,0.01-0.08,0.01-0.11,0.01
						c-0.07,0.01-0.14,0.01-0.21,0.03c-0.58,0.08-1.14,0.21-1.68,0.35c-0.26,0.07-0.53,0.15-0.78,0.23
						c-0.37,0.12-0.74,0.24-1.09,0.35c-0.14,0.05-0.28,0.1-0.41,0.14c-0.98,0.34-1.71,0.58-2.3,0.66c-0.37,0.05-0.69,0.04-0.99-0.04
						c-0.16-0.04-0.32-0.11-0.46-0.19c-0.58-0.33-0.67-0.84,0.42-1.47c1.16-0.67,2.34-0.74,3.34-0.35l2.31-2.33
						c-2.22-0.72-4.6-0.6-6.96,0.39l-1.92-1.11l-2.62,1.51l1.92,1.11c-0.94,0.73-1.44,1.48-1.43,2.21v0.02
						c0.03,0.74,0.57,1.45,1.7,2.11c2.53,1.46,5.03,0.98,7.32,0.24c2.13-0.69,3.68-1.51,4.91-0.8c0.77,0.44,0.53,0.98-0.32,1.47
						c-1.36,0.79-2.85,0.55-3.66,0.21l-2.46,2.44c0.46,0.17,0.91,0.3,1.36,0.4c0.81,0.17,1.6,0.22,2.37,0.17
						c1.36-0.08,2.62-0.44,3.71-0.91l1.92,1.11l2.59-1.5L271,394.72z"/>
				</g>
				<polygon id="XMLID_127_" class="st2" points="266.92,395.36 266.92,397.41 268.84,398.52 268.84,396.47 				"/>
				<polygon id="XMLID_125_" class="st22" points="266.92,395.36 266.92,397.41 268.84,398.52 268.84,396.47 				"/>
			</g>
			<g id="XMLID_111_">
				<polygon id="XMLID_123_" class="st0" points="251.49,386.7 254.11,385.19 256.03,386.29 254.13,385.49 				"/>
				<path id="XMLID_116_" class="st0" d="M257.35,388.58c1.16-0.67,2.34-0.74,3.34-0.35l2.31-2.33l-2.31,2.09
					C260.69,387.99,258.85,387.29,257.35,388.58z"/>
				<path id="XMLID_115_" class="st0" d="M259.48,395.69c0.46,0.17,0.91,0.3,1.36,0.4c0.81,0.17,1.6,0.22,2.37,0.17
					c0,0-1.85,0.05-3.34-0.67l2.07-2.34L259.48,395.69z"/>
				<polygon id="XMLID_114_" class="st0" points="266.92,395.36 268.84,396.22 271.43,394.97 268.84,396.47 				"/>
				<path id="XMLID_113_" class="st0" d="M244.03,382.46c6.81-4.14,17.43-4.55,17.43-4.55c-6.68,0-12.94,1.5-17.63,4.2
					c-4.5,2.6-6.98,5.98-6.98,9.54C236.86,391.65,237.1,386.67,244.03,382.46z"/>
				<path id="XMLID_112_" class="st0" d="M259.48,406.46c7.23,0.32,14.65-1.11,20.18-4.31c5.75-3.32,8.21-7.82,7.38-12.15
					c0,0,1.07,7.06-7.81,11.89C270.34,406.72,259.48,406.46,259.48,406.46z"/>
			</g>
		</g>
		<g id="XMLID_1_">
			<g id="XMLID_108_">
				<path id="XMLID_109_" class="st2" d="M287.34,384.42c-1.23-2.08-3.28-4.03-6.15-5.68c-10.05-5.8-26.34-5.8-36.39,0
					c-2.87,1.66-4.92,3.61-6.15,5.68h-1.39v5.26h0.02c0.19,3.66,2.69,7.28,7.52,10.07c10.05,5.8,26.34,5.8,36.39,0
					c4.83-2.79,7.35-6.41,7.54-10.07v0v-5.26H287.34z"/>
			</g>
			<g id="XMLID_104_" class="st14">
				<g>
					<path id="XMLID_25_" d="M287.34,384.42c-1.23-2.08-3.28-4.03-6.15-5.68c-10.05-5.8-26.34-5.8-36.39,0
						c-2.87,1.66-4.92,3.61-6.15,5.68h-1.39v5.26h0.02c0.19,3.66,2.69,7.28,7.52,10.07c10.05,5.8,26.34,5.8,36.39,0
						c4.83-2.79,7.35-6.41,7.54-10.07v0v-5.26H287.34z"/>
				</g>
			</g>
			<path id="XMLID_103_" class="st15" d="M263,374.39c-6.59,0-13.17,1.45-18.2,4.35c-2.87,1.66-4.92,3.61-6.15,5.68h-1.39v5.26h0.02
				c0.19,3.66,2.69,7.28,7.52,10.07c5.02,2.9,11.61,4.35,18.2,4.35V374.39z"/>
			<path id="XMLID_102_" class="st15" d="M248.95,376.8c-1.46,0.55-2.86,1.2-4.14,1.94c-2.87,1.66-4.92,3.61-6.15,5.68h-1.39v5.26
				h0.02c0.19,3.66,2.69,7.28,7.52,10.07c1.29,0.74,2.68,1.39,4.14,1.94V376.8z"/>
			<path id="XMLID_101_" class="st16" d="M277.06,376.8c1.46,0.55,2.86,1.2,4.14,1.94c2.87,1.66,4.92,3.61,6.15,5.68h1.39v5.26v0
				c-0.19,3.66-2.7,7.28-7.54,10.07c-1.29,0.74-2.68,1.39-4.14,1.94V376.8z"/>
			<g id="XMLID_90_">
				<path id="XMLID_99_" class="st2" d="M281.2,373.92c-10.05-5.8-26.34-5.8-36.39,0c-10.05,5.8-10.05,15.21,0,21.01
					c10.05,5.8,26.34,5.8,36.39,0C291.25,389.13,291.25,379.72,281.2,373.92z"/>
				<path id="XMLID_97_" class="st4" d="M281.2,373.92c-10.05-5.8-26.34-5.8-36.39,0c-10.05,5.8-10.05,15.21,0,21.01
					c10.05,5.8,26.34,5.8,36.39,0C291.25,389.13,291.25,379.72,281.2,373.92z"/>
				<g id="XMLID_91_">
					<path id="XMLID_96_" class="st2" d="M274.85,377.77c-3.18-1.63-7.39-2.53-11.85-2.53c-4.46,0-8.67,0.9-11.85,2.53
						c-3.37,1.73-5.22,4.09-5.22,6.66c0,2.57,1.85,4.93,5.22,6.66c3.18,1.63,7.39,2.53,11.85,2.53c4.46,0,8.67-0.9,11.85-2.53
						c3.36-1.73,5.22-4.09,5.22-6.66C280.07,381.86,278.22,379.49,274.85,377.77z"/>
					<path id="XMLID_95_" class="st17" d="M274.85,377.77c-3.18-1.63-7.39-2.53-11.85-2.53c-4.46,0-8.67,0.9-11.85,2.53
						c-3.37,1.73-5.22,4.09-5.22,6.66c0,2.57,1.85,4.93,5.22,6.66c3.18,1.63,7.39,2.53,11.85,2.53c4.46,0,8.67-0.9,11.85-2.53
						c3.36-1.73,5.22-4.09,5.22-6.66C280.07,381.86,278.22,379.49,274.85,377.77z"/>
					<path id="XMLID_92_" class="st2" d="M280.64,374.89c-4.69-2.71-10.96-4.2-17.64-4.2s-12.94,1.5-17.63,4.2
						c-4.5,2.6-6.98,5.98-6.98,9.54c0,3.55,2.47,6.94,6.98,9.54c4.69,2.7,10.95,4.2,17.63,4.2s12.94-1.49,17.64-4.2
						c4.5-2.6,6.98-5.99,6.98-9.54C287.62,380.87,285.13,377.49,280.64,374.89z M274.85,391.09c-3.18,1.63-7.39,2.53-11.85,2.53
						c-4.46,0-8.67-0.9-11.85-2.53c-3.37-1.73-5.22-4.09-5.22-6.66c0-2.57,1.85-4.94,5.22-6.66c3.18-1.63,7.39-2.53,11.85-2.53
						c4.46,0,8.67,0.9,11.85,2.53c3.36,1.73,5.22,4.09,5.22,6.66C280.07,387,278.22,389.36,274.85,391.09z"/>
				</g>
			</g>
			<g id="XMLID_82_">
				<path id="XMLID_89_" class="st4" d="M274.45,390.3c6.32-3.24,6.32-8.5,0-11.75c-6.32-3.24-16.57-3.24-22.89,0
					c-6.32,3.24-6.32,8.5,0,11.75C257.88,393.54,268.13,393.54,274.45,390.3z"/>
				<path id="XMLID_88_" class="st2" d="M274.45,390.3c6.32-3.24,6.32-8.5,0-11.75c-6.32-3.24-16.57-3.24-22.89,0
					c-6.32,3.24-6.32,8.5,0,11.75C257.88,393.54,268.13,393.54,274.45,390.3z"/>
				<path id="XMLID_86_" class="st18" d="M274.45,390.3c6.32-3.24,6.32-8.5,0-11.75c-6.32-3.24-16.57-3.24-22.89,0
					c-6.32,3.24-6.32,8.5,0,11.75C257.88,393.54,268.13,393.54,274.45,390.3z"/>
				<path id="XMLID_85_" class="st2" d="M274.45,380.75c-6.32-3.24-16.57-3.24-22.89,0c-2.61,1.34-4.14,3.03-4.59,4.77
					c0.45,1.75,1.98,3.43,4.6,4.77c6.32,3.24,16.57,3.24,22.89,0c2.61-1.34,4.14-3.03,4.6-4.77
					C278.59,383.78,277.06,382.1,274.45,380.75z"/>
				<path id="XMLID_83_" class="st19" d="M274.45,380.75c-6.32-3.24-16.57-3.24-22.89,0c-2.61,1.34-4.14,3.03-4.59,4.77
					c0.45,1.75,1.98,3.43,4.6,4.77c6.32,3.24,16.57,3.24,22.89,0c2.61-1.34,4.14-3.03,4.6-4.77
					C278.59,383.78,277.06,382.1,274.45,380.75z"/>
			</g>
			<g id="XMLID_55_">
				<polygon id="XMLID_81_" class="st2" points="264.54,378.68 264.54,381.05 263.73,381.91 262.23,383.48 262.23,381.01 				"/>
				<polygon id="XMLID_80_" class="st20" points="264.54,378.68 264.54,381.05 263.73,381.91 262.23,383.48 262.23,381.01 				"/>
				<path id="XMLID_79_" class="st2" d="M262.23,381.01v1.4c-0.98,0.34-1.71,0.57-2.3,0.65c-0.37,0.05-0.69,0.05-0.99-0.04
					c-0.17-0.05-0.31-0.11-0.47-0.19c-0.57-0.34-0.66-0.85,0.42-1.47C260.04,380.68,261.23,380.62,262.23,381.01z"/>
				<path id="XMLID_77_" class="st22" d="M262.23,381.01v1.4c-0.98,0.34-1.71,0.57-2.3,0.65c-0.37,0.05-0.69,0.05-0.99-0.04
					c-0.17-0.05-0.31-0.11-0.47-0.19c-0.57-0.34-0.66-0.85,0.42-1.47C260.04,380.68,261.23,380.62,262.23,381.01z"/>
				<path id="XMLID_76_" class="st2" d="M272.97,387.75v2.05l-2.59,1.5l-1.92-1.11c-2.04,0.88-4.7,1.38-7.43,0.34v-2.05l1.18-1.17
					l-1.18,0.33c-1.86,0.43-3.81,0.48-5.79-0.66c-1.16-0.67-1.7-1.41-1.7-2.16v-1.99l0.21-0.87l-0.71-0.41v-2.05l1.92,1.11
					c-0.94,0.73-1.43,1.47-1.42,2.2v0.02c0.02,0.74,0.57,1.45,1.7,2.11c2.52,1.46,5.03,0.98,7.32,0.24c2.13-0.7,3.68-1.51,4.91-0.8
					c0.76,0.44,0.53,0.98-0.33,1.47c-1.37,0.79-2.85,0.55-3.66,0.21l-2.45,2.43c0.45,0.17,0.91,0.3,1.36,0.4
					c2.25,0.47,4.38,0,6.08-0.73l1.92,1.11L272.97,387.75z"/>
				<path id="XMLID_74_" class="st23" d="M253.53,382.78v0.02c0.02,0.74,0.57,1.45,1.7,2.11c2.52,1.46,5.03,0.98,7.32,0.24
					c2.13-0.7,3.68-1.51,4.91-0.8c0.76,0.44,0.53,0.98-0.33,1.47c-1.37,0.79-2.85,0.55-3.66,0.21l-2.45,2.43
					c0.45,0.17,0.91,0.3,1.36,0.4c2.25,0.47,4.38,0,6.08-0.73l1.92,1.11l2.59-1.5v2.05l-2.59,1.5l-1.92-1.11
					c-2.04,0.88-4.7,1.38-7.43,0.34v-2.05l1.18-1.17l-1.18,0.33c-1.86,0.43-3.81,0.48-5.79-0.66c-1.16-0.67-1.7-1.41-1.7-2.16v-1.99
					l0.21-0.87"/>
				<path id="XMLID_72_" class="st22" d="M253.03,379.47v2.05l0.71,0.41l0,0.01c0.23-0.45,0.64-0.91,1.22-1.36L253.03,379.47z"/>
				<g id="XMLID_70_">
					<path id="XMLID_71_" class="st2" d="M272.54,386.41c0,0.38-0.07,0.71-0.19,0.98l-1.3-0.75c0,0,1.31-0.53,1.47-1.97
						C272.53,385.23,272.54,386.35,272.54,386.41z"/>
				</g>
				<g id="XMLID_68_" class="st20">
					<path id="XMLID_69_" d="M272.54,386.41c0,0.38-0.07,0.71-0.19,0.98l-1.3-0.75c0,0,1.31-0.53,1.47-1.97
						C272.53,385.23,272.54,386.35,272.54,386.41z"/>
				</g>
				<g id="XMLID_65_">
					<path id="XMLID_66_" class="st2" d="M272.54,387.5l-1.49-0.86c0,0,1.49-0.61,1.49-2.28c0-0.07-0.01-0.14-0.01-0.2
						c-0.06-0.71-0.59-1.4-1.66-2.01c0-0.01,0-0.01,0-0.01c-1.14-0.66-2.31-0.9-3.45-0.9c-0.1,0-0.2,0.01-0.3,0.01h-0.03
						c-0.1,0.01-0.21,0.01-0.31,0.02c-0.09,0.01-0.18,0.01-0.27,0.03c-0.04,0.01-0.08,0.01-0.11,0.01
						c-0.07,0.01-0.14,0.01-0.21,0.03c-0.58,0.08-1.14,0.21-1.68,0.35c-0.26,0.07-0.53,0.15-0.78,0.23
						c-0.37,0.12-0.74,0.24-1.09,0.35c-0.14,0.05-0.28,0.1-0.41,0.14c-0.98,0.34-1.71,0.58-2.3,0.66c-0.37,0.05-0.69,0.05-0.99-0.04
						c-0.16-0.04-0.32-0.11-0.46-0.19c-0.58-0.33-0.67-0.84,0.42-1.47c1.16-0.67,2.34-0.74,3.34-0.35l2.31-2.33
						c-2.22-0.72-4.6-0.6-6.96,0.39l-1.92-1.11l-2.62,1.51l1.92,1.11c-0.94,0.73-1.44,1.48-1.43,2.21v0.02
						c0.03,0.74,0.57,1.45,1.7,2.11c2.53,1.46,5.03,0.98,7.32,0.24c2.13-0.69,3.68-1.51,4.91-0.8c0.77,0.44,0.53,0.98-0.32,1.47
						c-1.36,0.79-2.85,0.55-3.66,0.21l-2.46,2.44c0.46,0.17,0.91,0.3,1.36,0.4c0.81,0.17,1.6,0.22,2.37,0.17
						c1.36-0.08,2.62-0.44,3.71-0.91l1.92,1.11l2.59-1.5L272.54,387.5z"/>
				</g>
				<polygon id="XMLID_64_" class="st2" points="268.45,388.13 268.45,390.18 270.38,391.29 270.38,389.24 				"/>
				<polygon id="XMLID_62_" class="st22" points="268.45,388.13 268.45,390.18 270.38,391.29 270.38,389.24 				"/>
			</g>
			<g id="XMLID_40_">
				<polygon id="XMLID_46_" class="st0" points="253.03,379.47 255.65,377.96 257.57,379.07 255.67,378.27 				"/>
				<path id="XMLID_45_" class="st0" d="M258.89,381.36c1.16-0.67,2.34-0.74,3.34-0.35l2.31-2.33l-2.31,2.09
					C262.23,380.77,260.39,380.07,258.89,381.36z"/>
				<path id="XMLID_44_" class="st0" d="M261.02,388.47c0.46,0.17,0.91,0.3,1.36,0.4c0.81,0.17,1.6,0.22,2.37,0.17
					c0,0-1.85,0.05-3.34-0.67l2.07-2.34L261.02,388.47z"/>
				<polygon id="XMLID_43_" class="st0" points="268.45,388.13 270.38,389 272.97,387.75 270.38,389.24 				"/>
				<path id="XMLID_42_" class="st0" d="M245.57,375.24c6.81-4.14,17.43-4.55,17.43-4.55c-6.68,0-12.94,1.5-17.63,4.2
					c-4.5,2.6-6.98,5.98-6.98,9.54C238.39,384.43,238.64,379.45,245.57,375.24z"/>
				<path id="XMLID_41_" class="st0" d="M261.02,399.24c7.23,0.32,14.65-1.11,20.18-4.31c5.75-3.32,8.21-7.82,7.38-12.15
					c0,0,1.07,7.06-7.81,11.89C271.88,399.5,261.02,399.24,261.02,399.24z"/>
			</g>
		</g>
	</g>
</g>
</svg>
